<?xml version="1.0" encoding="UTF-8"?>
<!-- Generator: visioncortex VTracer 0.6.5 -->
<svg version="1.1" xmlns="http://www.w3.org/2000/svg" width="2048" height="2048" viewBox="0 0 2048 2048">
<path d="M0 0 C1.68 -0 3.35 -0.01 5.03 -0.02 C9.62 -0.03 14.2 -0.02 18.79 -0.01 C23.79 -0 28.79 -0.01 33.79 -0.02 C42.54 -0.04 51.29 -0.04 60.05 -0.03 C73.06 -0.01 86.08 -0.02 99.1 -0.03 C121 -0.05 142.9 -0.05 164.8 -0.04 C165.14 -0.04 165.14 -0.04 166.82 -0.04 C167.49 -0.04 168.16 -0.04 168.85 -0.04 C189.19 -0.03 209.54 -0.03 229.89 -0.03 C231.25 -0.03 232.61 -0.03 233.98 -0.03 C239.46 -0.03 244.93 -0.04 250.41 -0.04 C265.73 -0.04 281.04 -0.04 296.36 -0.04 C297.06 -0.04 297.75 -0.04 298.47 -0.04 C320.69 -0.05 342.91 -0.04 365.12 -0.03 C365.48 -0.03 365.48 -0.03 367.31 -0.03 C379 -0.03 390.7 -0.02 402.4 -0.02 C448.8 0 495.19 0 541.58 -0.02 C553.27 -0.02 564.96 -0.03 576.66 -0.03 C577.38 -0.03 578.1 -0.03 578.84 -0.03 C601.03 -0.04 623.22 -0.05 645.42 -0.04 C646.11 -0.04 646.81 -0.04 647.53 -0.04 C662.83 -0.04 678.13 -0.04 693.43 -0.04 C698.9 -0.03 704.37 -0.03 709.85 -0.03 C711.21 -0.03 712.57 -0.03 713.93 -0.03 C734.27 -0.03 754.61 -0.03 774.95 -0.04 C775.29 -0.04 775.29 -0.04 776.97 -0.04 C777.64 -0.04 778.3 -0.04 778.99 -0.04 C801.44 -0.05 823.89 -0.05 846.33 -0.03 C859.27 -0.02 872.21 -0.02 885.15 -0.03 C893.8 -0.04 902.44 -0.03 911.08 -0.02 C916.01 -0.01 920.93 -0 925.86 -0.02 C930.34 -0.03 934.83 -0.03 939.31 -0.01 C940.92 -0 942.53 -0 944.13 -0.01 C957.78 -0.1 971.16 1.69 983.33 8.32 C983.66 8.49 983.66 8.49 985.34 9.37 C1003.66 19.19 1018.24 34.2 1024.54 54.37 C1029.08 69.98 1029.08 69.98 1029.09 78.14 C1029.09 78.71 1029.09 78.71 1029.1 81.58 C1029.1 82.82 1029.09 84.07 1029.09 85.35 C1029.1 86.69 1029.1 88.03 1029.1 89.37 C1029.11 93.07 1029.11 96.77 1029.11 100.47 C1029.11 104.49 1029.12 108.51 1029.12 112.53 C1029.13 120.51 1029.14 128.49 1029.14 136.48 C1029.15 146.03 1029.16 155.59 1029.17 165.15 C1029.2 188.25 1029.21 211.35 1029.22 234.46 C1029.23 242.11 1029.23 249.76 1029.24 257.41 C1029.26 298.1 1029.29 338.79 1029.3 379.48 C1029.3 388.91 1029.3 398.33 1029.31 407.76 C1029.31 408.93 1029.31 410.1 1029.31 411.31 C1029.32 449.28 1029.35 487.25 1029.39 525.22 C1029.44 564.26 1029.46 603.29 1029.47 642.33 C1029.47 647.84 1029.47 653.36 1029.47 658.87 C1029.47 659.41 1029.47 659.41 1029.47 662.16 C1029.47 679.62 1029.49 697.08 1029.52 714.54 C1029.55 732.09 1029.55 749.65 1029.54 767.2 C1029.54 777.63 1029.55 788.05 1029.57 798.48 C1029.59 805.45 1029.59 812.42 1029.57 819.39 C1029.57 823.36 1029.56 827.32 1029.59 831.29 C1029.71 855.17 1028.47 875.04 1011.29 893.25 C1003.62 900.66 994.98 903.57 984.96 906.5 C984.37 906.69 983.79 906.87 983.19 907.06 C980.08 907.68 977.1 907.63 973.94 907.63 C973.23 907.64 972.51 907.64 971.78 907.64 C969.38 907.64 966.98 907.64 964.58 907.64 C962.84 907.64 961.1 907.65 959.36 907.65 C954.55 907.66 949.74 907.66 944.93 907.66 C939.71 907.66 934.48 907.66 929.26 907.67 C918.89 907.68 908.52 907.69 898.15 907.69 C885.73 907.7 873.31 907.71 860.89 907.72 C830.87 907.74 800.85 907.76 770.83 907.77 C760.89 907.78 750.95 907.78 741.01 907.78 C688.93 907.81 636.85 907.83 584.77 907.84 C580.95 907.84 577.14 907.85 573.33 907.85 C572.57 907.85 571.82 907.85 571.04 907.85 C563.37 907.85 555.71 907.85 548.05 907.85 C546.51 907.85 544.97 907.85 543.44 907.85 C494.1 907.87 444.77 907.9 395.43 907.94 C359.99 907.97 324.54 908 289.1 908 C288.73 908 288.73 908 286.89 908.01 C270.88 908.01 254.87 908.01 238.87 908.01 C232.43 908.01 225.99 908.02 219.54 908.02 C219.19 908.02 219.19 908.02 217.41 908.02 C194.71 908.02 172.01 908.04 149.32 908.07 C125.81 908.09 102.31 908.1 78.8 908.09 C65.25 908.08 51.7 908.09 38.15 908.12 C29.1 908.14 20.05 908.14 11 908.12 C5.84 908.11 0.68 908.11 -4.47 908.13 C-9.17 908.15 -13.87 908.15 -18.57 908.13 C-20.25 908.12 -21.93 908.13 -23.62 908.14 C-40.55 908.27 -56.47 904.73 -69.23 892.82 C-75.77 885.89 -80.79 877.45 -84.04 868.5 C-84.39 867.57 -84.73 866.64 -85.08 865.69 C-86.67 860.02 -86.32 854.15 -86.3 848.31 C-86.3 846.96 -86.31 845.61 -86.31 844.25 C-86.32 840.52 -86.32 836.8 -86.31 833.07 C-86.31 829.02 -86.32 824.96 -86.32 820.91 C-86.34 813.8 -86.34 806.7 -86.34 799.59 C-86.33 789.02 -86.34 778.45 -86.35 767.89 C-86.37 747.91 -86.38 727.94 -86.38 707.97 C-86.38 692.54 -86.38 677.12 -86.39 661.7 C-86.39 657.26 -86.39 652.82 -86.39 648.38 C-86.39 647.28 -86.4 646.17 -86.4 645.04 C-86.41 614 -86.42 582.95 -86.42 551.91 C-86.42 550.74 -86.42 549.57 -86.41 548.37 C-86.41 542.43 -86.41 536.5 -86.41 530.57 C-86.41 529.39 -86.41 528.21 -86.41 526.99 C-86.41 524.61 -86.41 522.23 -86.41 519.84 C-86.41 482.77 -86.43 445.7 -86.46 408.63 C-86.49 366.99 -86.5 325.35 -86.5 283.7 C-86.5 279.26 -86.5 274.82 -86.5 270.38 C-86.5 269.29 -86.5 268.2 -86.5 267.07 C-86.5 249.47 -86.51 231.88 -86.53 214.28 C-86.55 196.6 -86.55 178.91 -86.54 161.22 C-86.53 150.72 -86.53 140.21 -86.55 129.71 C-86.56 122.68 -86.56 115.66 -86.55 108.64 C-86.54 104.64 -86.54 100.64 -86.55 96.65 C-86.57 93 -86.57 89.35 -86.55 85.71 C-86.54 83.8 -86.56 81.89 -86.57 79.97 C-86.47 68.1 -83.84 56.63 -78.17 46.13 C-77.82 45.46 -77.47 44.79 -77.11 44.1 C-66.56 24.24 -50.09 10.57 -28.71 3.38 C-18.99 0.58 -10.08 -0.06 0 0 Z " fill="#202831" transform="translate(553.0435781478882,393.4966354370117)"/>
<path d="M0 0 C0.7 -0 1.39 -0 2.11 -0.01 C4.44 -0.01 6.78 -0.01 9.11 -0.01 C10.8 -0.01 12.5 -0.01 14.2 -0.02 C18.88 -0.02 23.56 -0.02 28.24 -0.02 C33.32 -0.02 38.41 -0.03 43.49 -0.04 C53.58 -0.05 63.68 -0.05 73.77 -0.06 C85.86 -0.06 97.94 -0.07 110.03 -0.08 C139.24 -0.11 168.46 -0.13 197.68 -0.14 C207.35 -0.14 217.03 -0.15 226.71 -0.15 C277.42 -0.18 328.14 -0.2 378.85 -0.21 C382.56 -0.21 386.27 -0.21 389.98 -0.21 C390.72 -0.21 391.46 -0.21 392.22 -0.21 C399.68 -0.22 407.14 -0.22 414.6 -0.22 C416.09 -0.22 417.59 -0.22 419.08 -0.22 C467.1 -0.23 515.12 -0.26 563.14 -0.3 C597.64 -0.33 632.15 -0.36 666.65 -0.37 C667.01 -0.37 667.01 -0.37 668.8 -0.37 C684.39 -0.38 699.98 -0.38 715.57 -0.38 C721.85 -0.38 728.12 -0.38 734.39 -0.38 C734.74 -0.38 734.74 -0.38 736.47 -0.38 C758.56 -0.39 780.65 -0.41 802.74 -0.43 C825.62 -0.46 848.51 -0.47 871.39 -0.46 C884.57 -0.45 897.76 -0.46 910.94 -0.49 C919.75 -0.5 928.57 -0.5 937.38 -0.49 C942.4 -0.48 947.42 -0.48 952.44 -0.5 C990.99 -0.66 990.99 -0.66 1007.78 5.13 C1008.16 5.26 1008.16 5.26 1010.08 5.9 C1027.85 11.85 1042.18 21.29 1055.78 34.13 C1056.16 34.47 1056.16 34.47 1058.05 36.21 C1069.16 46.73 1076.51 59.33 1082.78 73.13 C1083.19 74.02 1083.6 74.92 1084.02 75.84 C1089.76 89.26 1091.83 103.61 1093.84 117.94 C1094.21 120.51 1094.58 123.08 1094.95 125.64 C1095.18 127.22 1095.41 128.8 1095.63 130.38 C1096.18 134.27 1096.78 138.14 1097.51 142.01 C1099.43 152.42 1100.21 162.39 1100.16 172.96 C1100.16 174.57 1100.17 176.19 1100.17 177.81 C1100.18 182.21 1100.18 186.62 1100.17 191.02 C1100.16 195.83 1100.17 200.63 1100.18 205.44 C1100.19 213.85 1100.19 222.27 1100.18 230.68 C1100.17 243.19 1100.17 255.7 1100.18 268.21 C1100.2 290.57 1100.2 312.92 1100.19 335.27 C1100.18 354.85 1100.18 374.42 1100.18 393.99 C1100.18 395.29 1100.18 396.59 1100.18 397.93 C1100.18 403.2 1100.19 408.48 1100.19 413.76 C1100.19 428.5 1100.19 443.25 1100.19 458 C1100.19 458.67 1100.19 459.34 1100.19 460.03 C1100.19 481.42 1100.19 502.82 1100.18 524.21 C1100.18 524.9 1100.18 525.59 1100.18 526.31 C1100.18 537.57 1100.18 548.83 1100.17 560.09 C1100.16 604.71 1100.16 649.32 1100.17 693.94 C1100.18 705.17 1100.18 716.41 1100.18 727.64 C1100.18 727.99 1100.18 727.99 1100.18 729.74 C1100.19 751.09 1100.19 772.45 1100.19 793.8 C1100.19 794.14 1100.19 794.14 1100.19 795.83 C1100.19 811.24 1100.19 826.64 1100.19 842.05 C1100.18 847.32 1100.18 852.59 1100.18 857.86 C1100.18 858.51 1100.18 858.51 1100.18 861.79 C1100.18 881.33 1100.18 900.88 1100.19 920.42 C1100.2 942.67 1100.2 964.92 1100.18 987.17 C1100.17 999.6 1100.17 1012.03 1100.18 1024.46 C1100.19 1032.79 1100.18 1041.12 1100.17 1049.45 C1100.16 1054.18 1100.16 1058.91 1100.17 1063.63 C1100.22 1086.08 1099.27 1108.18 1097.11 1130.52 C1096.41 1138.15 1096.03 1145.79 1095.66 1153.44 C1095.37 1159.01 1095.08 1164.57 1094.78 1170.13 C1094.75 1170.8 1094.71 1171.46 1094.67 1172.15 C1094.26 1179.89 1093.66 1187.42 1092.03 1195 C1091.85 1195.85 1091.68 1196.69 1091.5 1197.55 C1084.13 1231.64 1066.87 1262.12 1037.36 1281.86 C1028.36 1287.66 1018.9 1292.26 1009.03 1296.38 C1008.3 1296.7 1007.56 1297.01 1006.8 1297.34 C990.58 1303.85 973.86 1304.76 956.59 1304.88 C954.56 1304.91 952.53 1304.94 950.49 1304.97 C945.59 1305.04 940.69 1305.09 935.78 1305.13 C936.43 1305.98 937.09 1306.82 937.76 1307.7 C942.95 1314.43 948.09 1321.19 953.15 1328.02 C955.67 1331.39 958.22 1334.7 960.93 1337.92 C966.11 1344.1 970.7 1350.15 974.34 1357.38 C974.65 1357.99 974.96 1358.61 975.28 1359.24 C981.01 1371.3 981.24 1382.91 981.21 1396 C981.22 1397.92 981.22 1399.85 981.23 1401.78 C981.24 1405.8 981.24 1409.82 981.23 1413.84 C981.22 1418.97 981.24 1424.09 981.27 1429.21 C981.28 1433.18 981.28 1437.16 981.28 1441.13 C981.28 1443.02 981.28 1444.91 981.3 1446.79 C981.39 1462.51 980.07 1476.31 968.75 1488.28 C956.83 1499.56 944.52 1501.43 928.68 1501.42 C927.13 1501.42 925.59 1501.43 924.05 1501.44 C919.82 1501.46 915.58 1501.46 911.35 1501.46 C906.79 1501.47 902.22 1501.49 897.65 1501.5 C886.63 1501.54 875.61 1501.55 864.59 1501.57 C859.39 1501.57 854.19 1501.58 849 1501.59 C831.72 1501.62 814.44 1501.65 797.17 1501.66 C796.62 1501.66 796.62 1501.66 793.82 1501.66 C792.71 1501.66 791.6 1501.66 790.46 1501.66 C788.22 1501.66 785.97 1501.66 783.73 1501.67 C782.62 1501.67 781.5 1501.67 780.36 1501.67 C762.32 1501.68 744.29 1501.72 726.25 1501.78 C707.72 1501.84 689.19 1501.87 670.66 1501.87 C660.26 1501.87 649.86 1501.89 639.47 1501.93 C630.61 1501.97 621.76 1501.98 612.9 1501.96 C608.39 1501.96 603.87 1501.96 599.36 1501.99 C595.22 1502.02 591.08 1502.02 586.94 1501.99 C585.45 1501.99 583.96 1501.99 582.47 1502.02 C570.86 1502.17 561.47 1499.68 552.38 1492.14 C542.58 1482.49 528.32 1458.43 527.66 1444.53 C527.66 1443.48 527.66 1442.42 527.66 1441.34 C527.66 1440.13 527.66 1438.93 527.66 1437.68 C527.66 1436.34 527.66 1435 527.67 1433.66 C527.67 1432.25 527.67 1430.84 527.67 1429.43 C527.67 1425.61 527.67 1421.78 527.68 1417.95 C527.69 1413.95 527.69 1409.95 527.69 1405.95 C527.69 1398.37 527.7 1390.8 527.71 1383.22 C527.72 1372.99 527.73 1362.75 527.73 1352.52 C527.74 1336.39 527.76 1320.26 527.78 1304.13 C503.03 1304.13 478.28 1304.13 452.78 1304.13 C452.86 1314.11 452.94 1324.09 453.03 1334.38 C453.06 1340.72 453.1 1347.07 453.12 1353.42 C453.16 1363.48 453.21 1373.54 453.31 1383.61 C453.38 1390.94 453.42 1398.27 453.44 1405.6 C453.45 1409.47 453.47 1413.35 453.52 1417.22 C453.91 1447.78 453.91 1447.78 445.78 1462.13 C444.9 1463.96 444.02 1465.79 443.16 1467.63 C442.38 1469.14 441.58 1470.64 440.78 1472.13 C440.57 1472.53 440.57 1472.53 439.49 1474.54 C432.7 1487.03 424.55 1496.54 410.78 1501.13 C408.7 1501.23 406.62 1501.26 404.54 1501.27 C403.23 1501.27 401.91 1501.28 400.56 1501.28 C399.09 1501.28 397.62 1501.28 396.15 1501.28 C394.6 1501.29 393.04 1501.29 391.49 1501.3 C387.21 1501.31 382.93 1501.31 378.65 1501.32 C374.04 1501.33 369.43 1501.34 364.82 1501.35 C353.67 1501.37 342.53 1501.39 331.38 1501.4 C328.24 1501.4 325.09 1501.41 321.94 1501.41 C302.39 1501.44 282.85 1501.46 263.3 1501.47 C258.77 1501.47 254.24 1501.48 249.72 1501.48 C248.59 1501.48 247.46 1501.48 246.3 1501.48 C228.08 1501.49 209.85 1501.53 191.62 1501.57 C172.91 1501.61 154.2 1501.64 135.48 1501.64 C124.98 1501.64 114.47 1501.66 103.96 1501.69 C95.01 1501.72 86.06 1501.73 77.11 1501.72 C72.55 1501.71 67.98 1501.71 63.42 1501.74 C59.23 1501.76 55.05 1501.76 50.87 1501.74 C49.36 1501.74 47.85 1501.74 46.34 1501.76 C33.28 1501.88 23.09 1498.98 13.04 1490.35 C2.53 1480 -0.61 1468.28 -0.75 1453.93 C-0.75 1451.1 -0.73 1448.27 -0.71 1445.44 C-0.72 1443.44 -0.72 1441.45 -0.72 1439.45 C-0.72 1435.28 -0.71 1431.12 -0.69 1426.95 C-0.66 1421.63 -0.66 1416.32 -0.67 1411.01 C-0.68 1406.89 -0.67 1402.77 -0.66 1398.65 C-0.65 1396.7 -0.65 1394.74 -0.66 1392.78 C-0.68 1372.46 3.55 1358.12 16.37 1341.91 C18.58 1339.12 20.77 1336.3 22.95 1333.48 C24.17 1331.92 25.39 1330.35 26.6 1328.79 C30.77 1323.45 34.87 1318.06 38.91 1312.61 C40.82 1310.08 42.79 1307.6 44.78 1305.13 C43.52 1305.12 42.26 1305.1 40.96 1305.09 C36.23 1305.03 31.49 1304.95 26.75 1304.87 C24.71 1304.83 22.67 1304.81 20.64 1304.78 C5.21 1304.61 -8.47 1303.19 -23.09 1297.94 C-23.94 1297.64 -24.79 1297.34 -25.66 1297.03 C-56.02 1285.88 -79.49 1266.45 -95.22 1238.13 C-95.85 1237 -96.48 1235.86 -97.13 1234.69 C-100.48 1228.33 -103.16 1221.93 -105.47 1215.13 C-105.59 1214.79 -105.59 1214.79 -106.18 1213.05 C-110.45 1199.83 -112.03 1186.45 -113.28 1172.69 C-113.37 1171.79 -113.45 1170.89 -113.54 1169.97 C-114.98 1154.49 -115.95 1139.01 -116.62 1123.48 C-116.66 1122.7 -116.69 1121.92 -116.73 1121.12 C-116.79 1119.68 -116.85 1118.24 -116.9 1116.8 C-117.03 1113.77 -117.26 1110.83 -117.73 1107.83 C-118.21 1104.23 -118.35 1100.81 -118.35 1097.18 C-118.35 1096.85 -118.35 1096.85 -118.35 1095.16 C-118.36 1092.93 -118.36 1090.69 -118.35 1088.46 C-118.35 1086.84 -118.36 1085.21 -118.36 1083.59 C-118.37 1079.11 -118.37 1074.63 -118.37 1070.15 C-118.37 1065.28 -118.37 1060.41 -118.38 1055.54 C-118.39 1045.88 -118.39 1036.22 -118.39 1026.56 C-118.4 1014.98 -118.4 1003.41 -118.41 991.84 C-118.43 963.87 -118.44 935.9 -118.45 907.93 C-118.46 894.69 -118.46 881.46 -118.47 868.22 C-118.49 823.63 -118.5 779.04 -118.51 734.45 C-118.51 730.89 -118.51 727.34 -118.51 723.79 C-118.51 723.08 -118.51 722.38 -118.51 721.65 C-118.51 714.51 -118.51 707.36 -118.51 700.22 C-118.51 698.79 -118.51 697.36 -118.51 695.92 C-118.52 649.95 -118.54 603.97 -118.58 558 C-118.6 524.96 -118.62 491.93 -118.63 458.89 C-118.63 458.21 -118.63 457.53 -118.63 456.83 C-118.63 441.9 -118.63 426.97 -118.64 412.04 C-118.64 406.04 -118.64 400.03 -118.64 394.02 C-118.64 392.71 -118.64 391.39 -118.64 390.04 C-118.64 368.9 -118.66 347.76 -118.68 326.62 C-118.7 305.37 -118.7 284.11 -118.69 262.86 C-118.69 250.23 -118.69 237.61 -118.71 224.99 C-118.73 216.55 -118.73 208.11 -118.71 199.67 C-118.71 194.86 -118.71 190.06 -118.72 185.26 C-118.84 149.68 -118.84 149.68 -114.69 132.23 C-113.93 128.82 -113.44 125.39 -112.95 121.94 C-108.46 91.81 -101.48 64.84 -81.22 41.13 C-80.55 40.32 -79.89 39.51 -79.21 38.68 C-60.35 16.51 -29.28 0.02 0 0 Z M-21.47 100.88 C-22.13 101.22 -22.79 101.57 -23.48 101.92 C-43.37 112.52 -57.34 128.95 -64.3 150.46 C-66.78 159.22 -67.79 167.16 -67.72 176.31 C-67.73 177.68 -67.73 179.04 -67.74 180.4 C-67.76 184.12 -67.75 187.84 -67.73 191.56 C-67.72 195.62 -67.74 199.68 -67.75 203.73 C-67.76 210.84 -67.76 217.94 -67.75 225.04 C-67.73 235.6 -67.74 246.16 -67.75 256.72 C-67.78 275.58 -67.77 294.44 -67.76 313.3 C-67.75 329.81 -67.75 346.31 -67.75 362.81 C-67.75 363.91 -67.75 365 -67.75 366.13 C-67.76 370.58 -67.76 375.02 -67.76 379.47 C-67.77 421.16 -67.76 462.86 -67.74 504.55 C-67.72 541.59 -67.72 578.63 -67.74 615.67 C-67.76 657.29 -67.77 698.91 -67.76 740.54 C-67.76 744.97 -67.76 749.41 -67.75 753.85 C-67.75 754.94 -67.75 756.03 -67.75 757.16 C-67.75 773.65 -67.75 790.15 -67.76 806.64 C-67.78 825.4 -67.77 844.15 -67.75 862.91 C-67.74 873.4 -67.74 883.9 -67.75 894.39 C-67.76 901.4 -67.76 908.42 -67.74 915.43 C-67.73 919.42 -67.73 923.41 -67.74 927.41 C-67.75 931.05 -67.75 934.68 -67.73 938.32 C-67.72 940.24 -67.74 942.15 -67.75 944.07 C-67.61 960.67 -60.58 974.78 -49.06 986.47 C-36.08 998.64 -19.4 1000.89 -2.37 1000.76 C-0.61 1000.76 1.14 1000.77 2.89 1000.78 C7.68 1000.8 12.48 1000.79 17.27 1000.77 C22.49 1000.76 27.72 1000.78 32.94 1000.79 C42.09 1000.81 51.24 1000.81 60.38 1000.79 C73.99 1000.77 87.59 1000.78 101.19 1000.8 C124.08 1000.82 146.97 1000.83 169.85 1000.81 C170.55 1000.81 171.25 1000.81 171.96 1000.81 C172.66 1000.81 173.36 1000.81 174.08 1000.81 C195.34 1000.8 216.6 1000.79 237.86 1000.8 C239.29 1000.8 240.71 1000.8 242.14 1000.8 C247.86 1000.8 253.59 1000.8 259.31 1000.8 C275.32 1000.81 291.32 1000.81 307.33 1000.81 C308.06 1000.81 308.79 1000.81 309.54 1000.81 C332.76 1000.82 355.97 1000.81 379.19 1000.8 C379.57 1000.8 379.57 1000.8 381.47 1000.8 C393.7 1000.79 405.92 1000.79 418.15 1000.78 C466.63 1000.76 515.11 1000.76 563.59 1000.78 C575.8 1000.79 588.02 1000.79 600.24 1000.8 C600.62 1000.8 600.62 1000.8 602.52 1000.8 C625.71 1000.81 648.9 1000.82 672.1 1000.81 C672.82 1000.81 673.55 1000.81 674.3 1000.81 C690.29 1000.81 706.28 1000.81 722.27 1000.8 C727.99 1000.8 733.71 1000.8 739.43 1000.8 C740.85 1000.8 742.28 1000.8 743.7 1000.8 C764.95 1000.79 786.21 1000.8 807.46 1000.81 C808.16 1000.81 808.86 1000.81 809.57 1000.81 C809.92 1000.81 809.92 1000.81 811.68 1000.81 C835.14 1000.83 858.6 1000.82 882.06 1000.8 C895.58 1000.78 909.1 1000.78 922.62 1000.8 C931.65 1000.81 940.69 1000.8 949.72 1000.78 C954.86 1000.77 960.01 1000.76 965.16 1000.78 C969.84 1000.8 974.53 1000.79 979.22 1000.77 C980.9 1000.76 982.58 1000.77 984.25 1000.78 C1001.45 1000.9 1018 997.53 1030.97 985.44 C1041.01 974.74 1047.9 960.32 1047.91 945.49 C1047.91 944.92 1047.91 944.92 1047.92 942.05 C1047.92 940.81 1047.92 939.57 1047.92 938.29 C1047.92 936.95 1047.92 935.6 1047.92 934.26 C1047.93 930.56 1047.93 926.86 1047.93 923.16 C1047.93 919.14 1047.93 915.12 1047.94 911.1 C1047.95 903.12 1047.95 895.14 1047.96 887.16 C1047.96 877.6 1047.97 868.04 1047.98 858.49 C1048 835.38 1048.01 812.28 1048.02 789.18 C1048.02 778.25 1048.03 767.32 1048.03 756.39 C1048.05 718.98 1048.06 681.57 1048.07 644.16 C1048.07 641.81 1048.07 639.46 1048.07 637.11 C1048.07 635.94 1048.07 634.78 1048.07 633.58 C1048.07 627.68 1048.08 621.77 1048.08 615.87 C1048.08 615.29 1048.08 615.29 1048.08 612.32 C1048.09 574.35 1048.11 536.38 1048.14 498.41 C1048.18 458.27 1048.19 418.13 1048.2 377.99 C1048.2 373.58 1048.2 369.17 1048.2 364.76 C1048.2 363.68 1048.2 362.59 1048.2 361.47 C1048.2 344.01 1048.22 326.56 1048.24 309.1 C1048.26 291.54 1048.26 273.99 1048.25 256.43 C1048.25 246.01 1048.26 235.58 1048.28 225.16 C1048.29 218.19 1048.29 211.21 1048.28 204.24 C1048.27 200.28 1048.27 196.31 1048.29 192.34 C1048.4 163.19 1045.13 137.84 1023.78 116.13 C1023.09 115.43 1022.4 114.73 1021.7 114 C1005.16 98.27 983.72 92.81 961.47 92.87 C959.8 92.87 958.13 92.87 956.46 92.86 C951.87 92.85 947.27 92.86 942.67 92.86 C937.67 92.86 932.68 92.86 927.68 92.85 C918.92 92.84 910.15 92.84 901.39 92.84 C888.36 92.84 875.33 92.83 862.3 92.82 C837.68 92.8 813.05 92.8 788.43 92.8 C785.71 92.8 783 92.8 780.28 92.8 C779.94 92.8 779.94 92.8 778.24 92.8 C763.3 92.79 748.36 92.79 733.42 92.79 C727.27 92.78 721.12 92.78 714.97 92.78 C714.29 92.78 713.61 92.78 712.91 92.78 C673.96 92.77 635.01 92.76 596.06 92.76 C594.6 92.76 593.14 92.76 591.68 92.76 C585.1 92.76 578.52 92.76 571.94 92.76 C569.01 92.76 566.07 92.76 563.14 92.76 C561.67 92.76 560.2 92.76 558.73 92.76 C512.29 92.76 465.85 92.75 419.41 92.72 C407.71 92.71 396.01 92.7 384.31 92.7 C383.95 92.7 383.95 92.7 382.13 92.7 C359.92 92.68 337.71 92.68 315.5 92.67 C315.16 92.67 315.16 92.67 313.39 92.67 C298.08 92.67 282.77 92.67 267.46 92.67 C261.99 92.67 256.51 92.67 251.03 92.67 C249.67 92.67 248.3 92.67 246.94 92.67 C225.24 92.67 203.53 92.66 181.83 92.64 C159.35 92.63 136.88 92.62 114.41 92.64 C101.45 92.64 88.5 92.64 75.54 92.62 C66.89 92.61 58.24 92.61 49.58 92.63 C44.65 92.63 39.72 92.64 34.79 92.62 C30.3 92.6 25.81 92.61 21.32 92.63 C19.71 92.63 18.1 92.63 16.49 92.62 C3.07 92.53 -9.44 94.46 -21.47 100.88 Z " fill="#1B232E" transform="translate(534.218782544136,300.87004816532135)"/>
<path d="M0 0 C1.72 -0 3.44 -0.01 5.16 -0.01 C9.88 -0.02 14.6 -0.01 19.32 -0.01 C24.46 -0 29.6 -0.01 34.73 -0.01 C43.74 -0.02 52.74 -0.02 61.74 -0.01 C75.13 -0.01 88.51 -0.01 101.9 -0.02 C124.42 -0.03 146.94 -0.03 169.46 -0.02 C170.15 -0.02 170.83 -0.02 171.54 -0.02 C172.22 -0.02 172.91 -0.02 173.62 -0.02 C194.54 -0.01 215.46 -0.01 236.37 -0.02 C237.78 -0.02 239.18 -0.02 240.58 -0.02 C246.21 -0.02 251.84 -0.02 257.47 -0.02 C273.21 -0.02 288.94 -0.02 304.68 -0.02 C305.4 -0.02 306.11 -0.02 306.85 -0.02 C329.69 -0.02 352.52 -0.02 375.35 -0.02 C376.09 -0.02 376.83 -0.02 377.6 -0.02 C389.62 -0.01 401.65 -0.01 413.67 -0.01 C461.38 0 509.08 0 556.78 -0.01 C568.8 -0.01 580.83 -0.01 592.85 -0.02 C593.59 -0.02 594.33 -0.02 595.09 -0.02 C617.9 -0.02 640.72 -0.02 663.53 -0.02 C663.89 -0.02 663.89 -0.02 665.7 -0.02 C681.42 -0.02 697.14 -0.02 712.85 -0.02 C718.48 -0.02 724.1 -0.02 729.73 -0.02 C731.13 -0.02 732.53 -0.02 733.92 -0.02 C754.84 -0.01 775.76 -0.02 796.67 -0.02 C797.36 -0.02 798.04 -0.02 798.75 -0.02 C799.43 -0.02 800.12 -0.02 800.82 -0.02 C823.9 -0.03 846.98 -0.02 870.05 -0.01 C883.36 -0.01 896.67 -0.01 909.98 -0.02 C918.86 -0.02 927.75 -0.02 936.63 -0.01 C941.69 -0 946.76 -0 951.83 -0.01 C956.43 -0.02 961.04 -0.01 965.65 -0 C967.3 -0 968.96 -0 970.62 -0.01 C978.63 -0.03 986.12 0.07 993.9 2.25 C994.39 2.35 994.39 2.35 996.84 2.86 C1016.93 7.32 1033.37 18.07 1047.9 32.25 C1048.55 32.84 1049.21 33.44 1049.88 34.05 C1067.2 50.09 1077.9 76.63 1079.09 99.91 C1079.16 104.1 1079.17 108.29 1079.15 112.48 C1079.16 114.11 1079.16 115.73 1079.16 117.36 C1079.17 121.81 1079.17 126.27 1079.16 130.73 C1079.16 135.58 1079.17 140.43 1079.17 145.28 C1079.18 153.78 1079.18 162.28 1079.18 170.78 C1079.17 183.42 1079.18 196.06 1079.19 208.7 C1079.2 232.59 1079.2 256.48 1079.2 280.37 C1079.2 298.81 1079.2 317.26 1079.21 335.7 C1079.21 338.35 1079.21 341 1079.21 343.65 C1079.21 347.64 1079.21 351.63 1079.21 355.63 C1079.22 392.74 1079.22 429.86 1079.22 466.98 C1079.22 467.68 1079.22 468.38 1079.22 469.1 C1079.22 476.9 1079.22 484.7 1079.22 492.5 C1079.22 493.21 1079.22 493.91 1079.22 494.64 C1079.22 500.49 1079.22 500.49 1079.22 503.18 C1079.21 548.23 1079.22 593.28 1079.24 638.33 C1079.24 649.68 1079.25 661.03 1079.25 672.39 C1079.25 673.08 1079.25 673.78 1079.25 674.5 C1079.26 696.05 1079.26 717.6 1079.26 739.14 C1079.26 739.82 1079.26 740.49 1079.26 741.19 C1079.27 756.71 1079.26 772.23 1079.26 787.74 C1079.26 793.05 1079.26 798.36 1079.26 803.67 C1079.26 804.32 1079.26 804.32 1079.26 807.63 C1079.26 827.37 1079.27 847.12 1079.28 866.86 C1079.29 889.31 1079.29 911.76 1079.28 934.21 C1079.27 946.78 1079.27 959.35 1079.29 971.91 C1079.3 980.3 1079.29 988.7 1079.28 997.09 C1079.28 1001.87 1079.27 1006.65 1079.29 1011.44 C1079.3 1015.79 1079.29 1020.14 1079.28 1024.5 C1079.28 1026.06 1079.28 1027.62 1079.29 1029.18 C1079.33 1038.58 1078.45 1047.17 1075.9 1056.25 C1075.71 1056.97 1075.52 1057.7 1075.32 1058.44 C1070.88 1074.66 1065.02 1090.44 1053.9 1103.25 C1053.14 1104.13 1052.39 1105.01 1051.61 1105.92 C1049.42 1108.41 1047.17 1110.84 1044.9 1113.25 C1044.29 1113.93 1043.68 1114.6 1043.05 1115.3 C1030.72 1128.41 1014.47 1137.03 997.52 1142.56 C997.18 1142.68 997.18 1142.68 995.42 1143.26 C981.39 1147.56 967.08 1148.7 952.51 1148.63 C950.83 1148.63 949.15 1148.64 947.47 1148.64 C942.9 1148.65 938.32 1148.65 933.75 1148.64 C928.75 1148.63 923.76 1148.64 918.77 1148.65 C910.03 1148.66 901.29 1148.66 892.56 1148.65 C879.56 1148.64 866.57 1148.64 853.58 1148.65 C831.71 1148.67 809.85 1148.67 787.98 1148.66 C787.32 1148.66 786.65 1148.66 785.97 1148.66 C785.3 1148.66 784.63 1148.66 783.95 1148.66 C763.64 1148.65 743.33 1148.65 723.02 1148.65 C721.65 1148.65 720.29 1148.65 718.93 1148.65 C713.46 1148.65 707.99 1148.66 702.52 1148.66 C687.22 1148.66 671.93 1148.66 656.64 1148.66 C655.94 1148.66 655.24 1148.66 654.52 1148.66 C632.34 1148.66 610.16 1148.66 587.98 1148.65 C587.26 1148.65 586.54 1148.65 585.8 1148.65 C574.12 1148.65 562.45 1148.65 550.77 1148.64 C504.46 1148.63 458.15 1148.63 411.83 1148.64 C400.16 1148.65 388.49 1148.65 376.82 1148.65 C376.1 1148.65 375.38 1148.65 374.64 1148.65 C352.48 1148.66 330.32 1148.66 308.16 1148.66 C307.47 1148.66 306.77 1148.66 306.06 1148.66 C290.78 1148.66 275.5 1148.66 260.22 1148.66 C254.76 1148.66 249.29 1148.65 243.83 1148.65 C242.47 1148.65 241.11 1148.65 239.75 1148.65 C219.44 1148.65 199.14 1148.65 178.83 1148.66 C178.17 1148.66 177.5 1148.66 176.82 1148.66 C176.16 1148.66 175.49 1148.66 174.81 1148.66 C152.4 1148.67 129.99 1148.67 107.58 1148.65 C94.66 1148.64 81.75 1148.64 68.83 1148.65 C60.2 1148.66 51.57 1148.66 42.94 1148.64 C38.03 1148.64 33.12 1148.63 28.2 1148.64 C23.72 1148.65 19.24 1148.65 14.76 1148.63 C13.16 1148.63 11.56 1148.63 9.96 1148.64 C-25.56 1148.8 -54.68 1136.68 -80.1 1112.25 C-80.74 1111.68 -81.39 1111.11 -82.05 1110.53 C-95.39 1098.37 -104.01 1079.13 -109.1 1062.25 C-109.31 1061.54 -109.53 1060.83 -109.75 1060.1 C-115.13 1041.43 -114.82 1022.82 -114.74 1003.59 C-114.73 998.76 -114.75 993.92 -114.76 989.09 C-114.78 980.65 -114.78 972.2 -114.76 963.75 C-114.74 951.19 -114.75 938.63 -114.77 926.06 C-114.8 903.62 -114.79 881.18 -114.78 858.74 C-114.77 839.1 -114.76 819.47 -114.77 799.83 C-114.77 798.52 -114.77 797.22 -114.77 795.88 C-114.77 790.58 -114.77 785.29 -114.78 779.99 C-114.78 765.2 -114.78 750.4 -114.78 735.6 C-114.78 734.93 -114.78 734.25 -114.78 733.56 C-114.79 712.11 -114.78 690.66 -114.77 669.2 C-114.77 668.51 -114.77 667.81 -114.77 667.1 C-114.76 655.81 -114.76 644.52 -114.75 633.23 C-114.73 588.45 -114.73 543.67 -114.75 498.89 C-114.76 487.61 -114.76 476.32 -114.77 465.03 C-114.77 464.34 -114.77 463.64 -114.77 462.93 C-114.78 441.49 -114.79 420.06 -114.78 398.63 C-114.78 397.95 -114.78 397.28 -114.78 396.59 C-114.78 381.14 -114.78 365.7 -114.77 350.26 C-114.77 344.98 -114.77 339.69 -114.77 334.41 C-114.77 333.11 -114.77 331.81 -114.77 330.47 C-114.76 310.84 -114.77 291.22 -114.78 271.59 C-114.8 249.28 -114.79 226.96 -114.77 204.64 C-114.75 192.16 -114.75 179.68 -114.77 167.2 C-114.78 158.85 -114.77 150.5 -114.75 142.16 C-114.74 137.41 -114.73 132.66 -114.75 127.91 C-114.88 91.26 -114.88 91.26 -109.1 74.25 C-108.87 73.55 -108.63 72.84 -108.39 72.12 C-102.87 55.73 -93.34 42.29 -81.1 30.25 C-80.27 29.42 -79.43 28.59 -78.57 27.73 C-65.31 15.14 -47.05 5.74 -29.1 2.25 C-28.25 2.07 -27.4 1.9 -26.52 1.71 C-17.67 0.03 -8.97 -0.03 0 0 Z M-29.35 43 C-30.01 43.35 -30.68 43.69 -31.36 44.05 C-51.25 54.64 -65.22 71.08 -72.18 92.58 C-74.66 101.34 -75.67 109.28 -75.6 118.43 C-75.61 119.8 -75.61 121.16 -75.62 122.53 C-75.64 126.25 -75.63 129.96 -75.61 133.68 C-75.6 137.74 -75.62 141.8 -75.63 145.86 C-75.64 152.96 -75.64 160.06 -75.63 167.16 C-75.62 177.72 -75.62 188.28 -75.64 198.84 C-75.66 217.7 -75.65 236.56 -75.64 255.42 C-75.63 271.93 -75.63 288.43 -75.64 304.94 C-75.64 306.03 -75.64 307.13 -75.64 308.25 C-75.64 312.7 -75.64 317.15 -75.64 321.59 C-75.65 363.29 -75.64 404.98 -75.62 446.67 C-75.6 483.71 -75.6 520.75 -75.62 557.79 C-75.64 599.41 -75.65 641.04 -75.64 682.66 C-75.64 687.1 -75.64 691.53 -75.64 695.97 C-75.63 697.06 -75.63 698.15 -75.63 699.28 C-75.63 715.78 -75.64 732.27 -75.65 748.77 C-75.66 767.52 -75.65 786.27 -75.63 805.03 C-75.62 815.52 -75.62 826.02 -75.63 836.52 C-75.64 843.53 -75.64 850.54 -75.62 857.55 C-75.61 861.54 -75.61 865.54 -75.62 869.53 C-75.64 873.17 -75.63 876.81 -75.61 880.44 C-75.6 882.36 -75.62 884.27 -75.63 886.19 C-75.49 902.79 -68.47 916.9 -56.94 928.59 C-43.96 940.76 -27.28 943.01 -10.25 942.88 C-8.5 942.89 -6.74 942.89 -4.99 942.9 C-0.2 942.92 4.6 942.91 9.39 942.89 C14.61 942.88 19.84 942.9 25.06 942.91 C34.21 942.93 43.35 942.93 52.5 942.92 C66.1 942.9 79.71 942.91 93.31 942.92 C116.2 942.95 139.08 942.95 161.97 942.93 C162.67 942.93 163.36 942.93 164.08 942.93 C164.78 942.93 165.48 942.93 166.2 942.93 C187.46 942.92 208.72 942.91 229.98 942.92 C231.41 942.92 232.83 942.92 234.26 942.92 C239.98 942.92 245.71 942.93 251.43 942.93 C267.44 942.93 283.44 942.93 299.45 942.94 C300.18 942.94 300.91 942.94 301.66 942.94 C324.87 942.94 348.09 942.93 371.31 942.92 C371.68 942.92 371.68 942.92 373.59 942.92 C385.81 942.91 398.04 942.91 410.26 942.9 C458.74 942.88 507.22 942.88 555.71 942.9 C567.92 942.91 580.14 942.92 592.36 942.92 C592.73 942.92 592.73 942.92 594.64 942.92 C617.83 942.93 641.02 942.94 664.21 942.94 C664.94 942.94 665.67 942.94 666.42 942.94 C682.41 942.93 698.4 942.93 714.39 942.93 C720.11 942.92 725.83 942.92 731.55 942.92 C732.97 942.92 734.39 942.92 735.82 942.92 C757.07 942.91 778.33 942.92 799.58 942.93 C800.28 942.93 800.97 942.93 801.69 942.93 C802.04 942.93 802.04 942.93 803.8 942.93 C827.26 942.95 850.72 942.94 874.18 942.92 C887.7 942.9 901.22 942.9 914.74 942.92 C923.77 942.93 932.8 942.92 941.84 942.9 C946.98 942.89 952.13 942.89 957.27 942.9 C961.96 942.92 966.65 942.91 971.34 942.89 C973.02 942.88 974.7 942.89 976.37 942.9 C993.57 943.02 1010.12 939.65 1023.09 927.56 C1033.13 916.86 1040.02 902.44 1040.03 887.61 C1040.03 887.04 1040.03 887.04 1040.04 884.18 C1040.04 882.93 1040.04 881.69 1040.03 880.41 C1040.04 879.07 1040.04 877.73 1040.04 876.39 C1040.05 872.68 1040.05 868.98 1040.05 865.28 C1040.05 861.26 1040.05 857.24 1040.06 853.22 C1040.07 845.24 1040.07 837.26 1040.07 829.28 C1040.08 819.72 1040.09 810.16 1040.09 800.61 C1040.12 777.5 1040.13 754.4 1040.13 731.3 C1040.14 720.37 1040.14 709.44 1040.15 698.51 C1040.17 661.1 1040.18 623.69 1040.19 586.28 C1040.19 583.93 1040.19 581.58 1040.19 579.23 C1040.19 578.06 1040.19 576.9 1040.19 575.7 C1040.19 569.8 1040.19 563.9 1040.2 557.99 C1040.2 557.41 1040.2 557.41 1040.2 554.44 C1040.2 516.47 1040.23 478.5 1040.26 440.53 C1040.29 400.39 1040.31 360.25 1040.32 320.11 C1040.32 315.7 1040.32 311.29 1040.32 306.88 C1040.32 305.8 1040.32 304.71 1040.32 303.6 C1040.32 286.14 1040.34 268.68 1040.36 251.22 C1040.38 233.66 1040.38 216.11 1040.37 198.55 C1040.37 188.13 1040.37 177.7 1040.4 167.28 C1040.41 160.31 1040.41 153.34 1040.4 146.37 C1040.39 142.4 1040.39 138.43 1040.41 134.46 C1040.52 105.31 1037.25 79.96 1015.9 58.25 C1015.21 57.55 1014.52 56.85 1013.81 56.13 C997.28 40.39 975.84 34.93 953.59 34.99 C951.92 34.99 950.25 34.99 948.58 34.98 C943.98 34.97 939.39 34.98 934.79 34.98 C929.79 34.99 924.8 34.98 919.8 34.97 C911.04 34.96 902.27 34.96 893.51 34.96 C880.48 34.96 867.45 34.95 854.42 34.94 C829.8 34.92 805.17 34.92 780.55 34.92 C777.83 34.92 775.11 34.92 772.4 34.92 C772.06 34.92 772.06 34.92 770.36 34.92 C755.42 34.92 740.48 34.91 725.54 34.91 C719.39 34.9 713.24 34.9 707.09 34.9 C706.41 34.9 705.73 34.9 705.03 34.9 C666.08 34.89 627.13 34.88 588.17 34.88 C586.72 34.88 585.26 34.88 583.8 34.88 C577.22 34.88 570.64 34.88 564.06 34.88 C561.12 34.88 558.19 34.88 555.26 34.88 C553.79 34.88 552.32 34.88 550.85 34.88 C504.41 34.88 457.97 34.87 411.53 34.84 C399.83 34.83 388.13 34.83 376.43 34.82 C376.07 34.82 376.07 34.82 374.25 34.82 C352.04 34.81 329.83 34.8 307.62 34.8 C307.27 34.8 307.27 34.8 305.51 34.8 C290.2 34.79 274.89 34.79 259.58 34.79 C254.1 34.79 248.63 34.79 243.15 34.79 C241.79 34.79 240.42 34.79 239.06 34.79 C217.35 34.79 195.65 34.78 173.94 34.77 C151.47 34.75 129 34.75 106.53 34.76 C93.57 34.77 80.62 34.76 67.66 34.74 C59.01 34.73 50.35 34.73 41.7 34.75 C36.77 34.76 31.84 34.76 26.91 34.74 C22.42 34.73 17.93 34.73 13.44 34.75 C11.83 34.75 10.22 34.75 8.61 34.74 C-4.81 34.65 -17.32 36.58 -29.35 43 Z " fill="#E6E9EB" transform="translate(542.1000394821167,358.74831771850586)"/>
<path d="M0 0 C2.68 -0.37 2.68 -0.37 6.16 -0.37 C6.48 -0.37 6.48 -0.37 8.11 -0.38 C10.28 -0.39 12.45 -0.38 14.62 -0.37 C16.19 -0.37 17.75 -0.37 19.32 -0.38 C23.63 -0.39 27.94 -0.38 32.26 -0.36 C36.91 -0.35 41.55 -0.36 46.2 -0.36 C55.31 -0.37 64.42 -0.36 73.53 -0.34 C84.13 -0.32 94.72 -0.32 105.32 -0.32 C124.22 -0.32 143.12 -0.31 162.02 -0.28 C180.38 -0.26 198.75 -0.24 217.11 -0.24 C218.24 -0.24 219.37 -0.24 220.54 -0.24 C222.81 -0.24 225.09 -0.24 227.37 -0.24 C228.49 -0.24 229.62 -0.24 230.78 -0.24 C231.34 -0.24 231.34 -0.24 234.17 -0.24 C251.64 -0.23 269.11 -0.22 286.58 -0.21 C292.92 -0.2 299.26 -0.2 305.61 -0.2 C315.67 -0.19 325.72 -0.19 335.78 -0.17 C340.38 -0.17 344.98 -0.16 349.58 -0.16 C353.79 -0.16 357.99 -0.15 362.19 -0.14 C363.72 -0.14 365.25 -0.14 366.78 -0.14 C368.84 -0.14 370.9 -0.14 372.96 -0.13 C373.54 -0.13 373.54 -0.13 376.45 -0.13 C379 0 379 0 380 1 C380.12 2.73 380.17 4.46 380.19 6.19 C380.21 7.32 380.23 8.44 380.25 9.6 C380.26 10.85 380.27 12.1 380.29 13.38 C380.3 14.04 380.3 14.04 380.34 17.34 C380.5 29.48 380.59 41.62 380.65 53.77 C380.7 62.72 380.79 71.67 380.92 80.62 C381.01 86.93 381.06 93.25 381.08 99.56 C381.09 103.32 381.12 107.07 381.19 110.83 C381.67 134.77 377.1 157.99 360.69 176.62 C359.99 177.22 359.29 177.82 358.56 178.44 C358.21 178.75 358.21 178.75 356.44 180.31 C348.64 185.71 341.47 185.43 332.22 185.38 C330.7 185.38 329.17 185.39 327.65 185.4 C323.48 185.41 319.31 185.4 315.14 185.39 C310.64 185.39 306.13 185.4 301.63 185.4 C292.81 185.42 283.99 185.41 275.18 185.41 C268.01 185.4 260.84 185.4 253.67 185.4 C252.65 185.4 251.63 185.4 250.58 185.4 C248.51 185.4 246.43 185.4 244.36 185.41 C224.92 185.41 205.48 185.4 186.04 185.39 C169.37 185.37 152.7 185.38 136.02 185.39 C116.66 185.41 97.29 185.41 77.93 185.4 C75.86 185.4 73.8 185.4 71.73 185.4 C71.22 185.4 71.22 185.4 68.65 185.4 C61.49 185.4 54.34 185.4 47.18 185.41 C38.45 185.42 29.73 185.42 21 185.4 C16.55 185.39 12.1 185.39 7.65 185.4 C3.57 185.41 -0.51 185.4 -4.58 185.39 C-6.06 185.38 -7.53 185.38 -9 185.39 C-20.95 185.45 -31.04 184.53 -40 176 C-46.71 168.65 -49.47 161.1 -49.39 151.26 C-49.39 150.43 -49.4 149.6 -49.4 148.74 C-49.42 146 -49.41 143.27 -49.4 140.54 C-49.4 138.62 -49.4 136.71 -49.41 134.79 C-49.41 130.79 -49.41 126.78 -49.39 122.78 C-49.37 117.66 -49.38 112.55 -49.4 107.44 C-49.41 103.48 -49.41 99.53 -49.4 95.58 C-49.4 93.69 -49.4 91.81 -49.41 89.92 C-49.46 71.13 -49.46 71.13 -46 63 C-45.67 62.19 -45.35 61.39 -45.01 60.56 C-42.37 54.31 -38.26 49.34 -34 44.16 C-29.83 39.09 -25.92 33.87 -22.06 28.56 C-16.05 20.31 -9.74 12.35 -3.2 4.51 C-2.05 3.07 -1.02 1.53 0 0 Z " fill="#EAECEE" transform="translate(595,1605)"/>
<path d="M0 0 C48.11 -0.27 96.22 -0.49 144.34 -0.61 C150.02 -0.63 155.7 -0.64 161.38 -0.66 C162.51 -0.66 163.64 -0.67 164.8 -0.67 C183.11 -0.72 201.42 -0.82 219.73 -0.93 C238.52 -1.04 257.31 -1.1 276.1 -1.13 C287.69 -1.15 299.28 -1.2 310.87 -1.29 C318.82 -1.36 326.77 -1.38 334.72 -1.36 C339.31 -1.35 343.9 -1.37 348.48 -1.43 C352.69 -1.49 356.89 -1.49 361.09 -1.45 C362.61 -1.45 364.12 -1.46 365.64 -1.5 C376.65 -1.76 376.65 -1.76 380.58 1.18 C383.92 4.41 386.45 8.12 389 12 C390.07 13.39 391.16 14.78 392.26 16.15 C393.22 17.41 394.17 18.67 395.12 19.94 C396.22 21.39 397.32 22.83 398.42 24.28 C398.99 25.04 399.56 25.79 400.15 26.57 C402.15 29.19 404.16 31.8 406.18 34.41 C406.53 34.87 406.53 34.87 408.32 37.19 C409.69 38.97 411.07 40.75 412.44 42.52 C417.88 49.6 423.14 56.97 426.31 65.38 C426.62 66.17 426.92 66.96 427.24 67.77 C428.88 72.56 429.16 76.94 429.18 81.99 C429.18 82.79 429.19 83.59 429.2 84.42 C429.22 87.07 429.23 89.73 429.24 92.38 C429.24 93.29 429.25 94.2 429.25 95.13 C429.27 99.95 429.29 104.77 429.3 109.59 C429.31 114.54 429.34 119.49 429.38 124.45 C429.41 128.27 429.41 132.1 429.42 135.93 C429.42 137.75 429.43 139.58 429.45 141.4 C429.57 153.91 429.08 165.04 420.83 175.21 C413.83 182.04 405.08 185.24 395.39 185.26 C394.09 185.27 392.79 185.27 391.46 185.28 C390.03 185.28 388.61 185.28 387.18 185.27 C385.65 185.28 384.13 185.28 382.6 185.29 C378.42 185.3 374.24 185.31 370.05 185.31 C365.54 185.31 361.02 185.32 356.51 185.33 C346.64 185.35 336.77 185.36 326.91 185.37 C320.74 185.37 314.58 185.38 308.42 185.38 C291.35 185.4 274.28 185.42 257.22 185.42 C256.13 185.42 255.03 185.42 253.91 185.42 C251.7 185.42 249.48 185.42 247.27 185.42 C246.72 185.43 246.72 185.43 243.94 185.43 C243.39 185.43 243.39 185.43 240.61 185.43 C222.78 185.43 204.95 185.46 187.12 185.49 C168.82 185.53 150.51 185.55 132.2 185.55 C121.92 185.55 111.64 185.56 101.37 185.59 C92.62 185.61 83.87 185.62 75.12 185.61 C70.65 185.6 66.19 185.6 61.73 185.62 C57.64 185.64 53.55 185.64 49.46 185.62 C47.98 185.62 46.51 185.62 45.03 185.64 C35.03 185.73 26.94 184.78 19.52 177.6 C14.65 170.37 10.73 162.9 7.06 155 C6.48 153.77 5.9 152.55 5.32 151.32 C-0.13 139.79 -0.13 139.79 -0.12 133.36 C-0.12 132.19 -0.12 131.01 -0.12 129.81 C-0.12 128.52 -0.12 127.23 -0.11 125.9 C-0.11 124.53 -0.11 123.16 -0.11 121.79 C-0.11 118.07 -0.11 114.35 -0.1 110.63 C-0.1 106.74 -0.09 102.85 -0.09 98.96 C-0.09 91.6 -0.08 84.24 -0.07 76.88 C-0.06 68.49 -0.06 60.11 -0.05 51.73 C-0.04 34.49 -0.02 17.24 0 0 Z " fill="#EAECEE" transform="translate(1074,1605)"/>
<path d="M0 0 C24.75 0 49.5 0 75 0 C74.99 10.14 74.98 20.27 74.97 30.72 C74.98 37.16 74.99 43.61 75.01 50.05 C75.04 60.27 75.07 70.48 75.04 80.7 C75.03 88.14 75.04 95.58 75.07 103.02 C75.09 106.96 75.1 110.89 75.07 114.83 C74.91 145.8 74.91 145.8 83 159 C83.81 160.62 84.6 162.25 85.37 163.89 C97.37 187.02 97.37 187.02 109 193 C109.89 193.51 110.79 194.02 111.71 194.55 C117.78 197.1 124.53 196.42 130.99 196.39 C132.53 196.39 134.08 196.4 135.62 196.4 C139.86 196.42 144.09 196.41 148.33 196.41 C152.9 196.4 157.47 196.41 162.04 196.42 C170.99 196.44 179.94 196.44 188.89 196.44 C196.17 196.43 203.45 196.44 210.73 196.44 C211.24 196.44 211.24 196.44 213.87 196.44 C215.97 196.44 218.08 196.45 220.18 196.45 C239.92 196.46 259.66 196.46 279.41 196.44 C297.46 196.43 315.5 196.45 333.55 196.47 C352.09 196.5 370.63 196.51 389.17 196.5 C399.58 196.49 409.99 196.5 420.39 196.51 C429.25 196.53 438.11 196.53 446.97 196.51 C451.49 196.5 456.01 196.5 460.53 196.52 C464.67 196.53 468.81 196.53 472.96 196.51 C474.45 196.5 475.94 196.51 477.43 196.52 C493.18 196.62 505.25 193.14 516.88 182.24 C524.01 174.57 525.92 164.98 528 155 C538.68 154.74 549.02 155.51 559.62 156.69 C560.44 156.78 561.25 156.86 562.09 156.95 C578.15 158.68 594.15 160.83 610.14 163.16 C614.12 163.73 618.09 164.29 622.07 164.81 C670.04 171.15 670.04 171.15 684 181 C686 184 686 184 685.94 185.94 C683.45 191.41 677.06 193.62 671.81 195.71 C661.58 199.52 650.71 201.11 640 203 C639.43 203.11 639.43 203.11 636.52 203.64 C610.27 208.42 583.81 211.26 557.24 213.54 C553.33 213.88 549.43 214.25 545.53 214.64 C530.05 216.16 514.54 217.37 499.03 218.6 C495.75 218.87 492.47 219.13 489.18 219.4 C469.3 221.01 449.42 222.4 429.49 223.35 C428.73 223.39 427.98 223.43 427.2 223.47 C425.17 223.56 423.14 223.66 421.12 223.75 C418.01 223.92 414.93 224.19 411.84 224.49 C405.44 225.09 399.04 225.33 392.62 225.56 C391.97 225.58 391.97 225.58 388.7 225.7 C385.91 225.8 383.11 225.9 380.32 226 C375.88 226.16 371.45 226.32 367.01 226.48 C359.96 226.74 352.92 226.99 345.88 227.24 C333.32 227.69 320.77 228.15 308.21 228.6 C303.82 228.76 299.44 228.92 295.05 229.07 C291.63 229.2 288.22 229.32 284.81 229.44 C283.51 229.49 282.21 229.54 280.87 229.59 C274.38 229.82 267.9 230.09 261.42 230.41 C247.65 231.09 233.88 231.33 220.09 231.54 C218.74 231.56 217.39 231.58 216.04 231.6 C206.45 231.75 196.86 231.89 187.27 232.03 C185.71 232.05 184.15 232.07 182.59 232.1 C101.65 233.25 20.67 233.77 -154.47 231.14 C-159.82 231 -165.16 230.88 -170.51 230.76 C-209.91 229.85 -249.27 228.41 -288.64 226.53 C-299.95 226 -311.26 225.52 -322.57 225.06 C-350.88 223.89 -379.1 222.35 -407.33 219.9 C-414.11 219.32 -420.88 218.78 -427.67 218.33 C-474.72 215.22 -522.04 211.09 -568.44 202.44 C-569.18 202.3 -569.91 202.17 -570.67 202.03 C-603 196 -603 196 -611 188 C-611.44 185.62 -611.44 185.62 -611 183 C-583.47 157.81 -516.16 159.55 -480.25 156.69 C-479.78 156.65 -479.78 156.65 -477.38 156.46 C-469.54 155.9 -461.92 156 -454 156 C-454 129.27 -454 102.54 -454 75 C-453.67 75 -453.34 75 -453 75 C-453 75.53 -453 75.53 -452.99 78.22 C-452.95 88.28 -452.89 98.35 -452.82 108.41 C-452.78 113.58 -452.74 118.75 -452.73 123.92 C-452.71 128.92 -452.68 133.92 -452.63 138.92 C-452.62 140.82 -452.61 142.72 -452.61 144.62 C-452.59 160.25 -451.01 172.97 -440 185 C-429.24 194.46 -418.45 196.6 -404.51 196.51 C-402.95 196.51 -401.38 196.52 -399.82 196.53 C-395.55 196.54 -391.28 196.54 -387.01 196.52 C-382.4 196.51 -377.79 196.53 -373.18 196.54 C-364.15 196.56 -355.12 196.55 -346.09 196.54 C-338.75 196.53 -331.41 196.53 -324.08 196.54 C-323.55 196.54 -323.55 196.54 -320.91 196.54 C-318.79 196.54 -316.66 196.54 -314.54 196.54 C-294.64 196.55 -274.74 196.54 -254.84 196.52 C-237.77 196.5 -220.7 196.5 -203.63 196.52 C-183.8 196.54 -163.97 196.55 -144.13 196.54 C-142.02 196.54 -139.9 196.54 -137.79 196.54 C-136.75 196.53 -135.71 196.53 -134.64 196.53 C-127.31 196.53 -119.98 196.54 -112.65 196.55 C-103.72 196.56 -94.79 196.55 -85.85 196.53 C-81.3 196.52 -76.74 196.52 -72.19 196.53 C-68.01 196.54 -63.84 196.54 -59.67 196.51 C-58.16 196.51 -56.65 196.51 -55.15 196.52 C-47 196.57 -40.16 196.25 -33 192 C-31.97 191.42 -30.94 190.85 -29.88 190.25 C-15.57 179.06 -6.63 157.89 -1 141 C-0.9 139.1 -0.85 137.19 -0.84 135.29 C-0.83 134.1 -0.82 132.91 -0.81 131.68 C-0.81 130.37 -0.8 129.06 -0.79 127.72 C-0.79 126.33 -0.78 124.94 -0.76 123.55 C-0.74 119.77 -0.72 116 -0.7 112.22 C-0.67 108.28 -0.65 104.34 -0.62 100.39 C-0.57 92.92 -0.53 85.45 -0.48 77.98 C-0.42 67.89 -0.36 57.8 -0.29 47.71 C-0.19 31.81 -0.09 15.9 0 0 Z " fill="#ABA59C" transform="translate(987,1605)"/>
<path d="M0 0 C2.49 3.25 4.77 6.61 7.06 10 C13.69 19.64 20.8 28.67 30 36 C31.04 36.86 32.08 37.72 33.12 38.59 C52.49 54.47 73.53 62.33 98 67 C98.9 67.17 99.79 67.34 100.72 67.52 C104.18 68.03 107.46 68.13 110.96 68.13 C111.65 68.13 112.33 68.13 113.03 68.13 C115.31 68.14 117.6 68.14 119.89 68.13 C121.55 68.14 123.21 68.14 124.87 68.14 C129.45 68.15 134.04 68.15 138.62 68.15 C143.6 68.15 148.58 68.15 153.56 68.16 C163.45 68.17 173.34 68.17 183.22 68.17 C195.06 68.18 206.9 68.19 218.74 68.19 C247.36 68.22 275.98 68.23 304.61 68.23 C314.09 68.24 323.57 68.24 333.05 68.24 C333.72 68.24 334.39 68.24 335.08 68.25 C337.78 68.25 340.49 68.25 343.2 68.25 C389.5 68.27 435.8 68.28 482.1 68.29 C485.74 68.29 489.38 68.29 493.01 68.29 C493.38 68.29 493.38 68.29 495.2 68.29 C502.51 68.29 509.82 68.29 517.13 68.29 C518.59 68.3 520.06 68.3 521.53 68.3 C568.57 68.3 615.61 68.33 662.65 68.36 C696.45 68.38 730.25 68.4 764.05 68.41 C764.75 68.41 765.44 68.41 766.16 68.41 C781.44 68.41 796.71 68.42 811.99 68.42 C818.13 68.42 824.28 68.42 830.43 68.42 C831.1 68.42 831.77 68.42 832.46 68.42 C854.1 68.42 875.74 68.43 897.38 68.46 C919.8 68.48 942.22 68.48 964.64 68.47 C977.55 68.47 990.47 68.47 1003.38 68.5 C1012.02 68.51 1020.66 68.51 1029.29 68.5 C1034.21 68.49 1039.12 68.49 1044.04 68.51 C1063.36 68.57 1082.09 68.59 1101 64 C1102.2 63.71 1103.39 63.43 1104.63 63.13 C1107.21 62.48 1109.72 61.72 1112.25 60.88 C1113.14 60.58 1114.03 60.29 1114.95 59.99 C1130.27 54.71 1143.95 46.82 1156 36 C1156.61 35.46 1157.22 34.92 1157.84 34.36 C1167.95 25.19 1175.64 15.01 1182.93 3.51 C1183.11 3.26 1183.11 3.26 1184 2 C1184.33 2 1184.66 2 1185 2 C1185.93 22.5 1183.31 43.48 1177 63 C1176.82 63.58 1176.82 63.58 1175.88 66.52 C1169.9 83.56 1158.89 97.59 1146 110 C1145.23 110.8 1144.46 111.6 1143.66 112.43 C1117.98 137.28 1083.01 142.68 1048.83 142.43 C1046.28 142.42 1043.74 142.42 1041.19 142.42 C1035.91 142.41 1030.62 142.39 1025.34 142.36 C1018.55 142.32 1011.76 142.3 1004.98 142.29 C998.49 142.28 992 142.26 985.52 142.24 C984.28 142.23 983.04 142.23 981.76 142.23 C978.29 142.22 974.81 142.2 971.34 142.18 C970.3 142.17 969.26 142.17 968.19 142.17 C967.25 142.16 966.31 142.15 965.34 142.15 C964.52 142.14 963.71 142.14 962.86 142.13 C961 142 961 142 960 141 C959.9 139.41 959.87 137.82 959.86 136.22 C959.84 135.23 959.82 134.24 959.8 133.22 C959.77 131.15 959.75 129.08 959.75 127.01 C959.55 118.84 957.67 112.26 952.26 105.98 C944.07 98.18 935.03 96.4 924.05 96.5 C922.88 96.49 921.71 96.49 920.51 96.48 C917.27 96.47 914.04 96.47 910.8 96.49 C907.28 96.5 903.75 96.48 900.23 96.47 C894.05 96.46 887.88 96.46 881.71 96.47 C872.53 96.48 863.35 96.48 854.17 96.46 C837.77 96.44 821.38 96.45 804.98 96.46 C790.64 96.47 776.29 96.47 761.94 96.46 C760.99 96.46 760.04 96.46 759.06 96.46 C755.19 96.46 751.33 96.46 747.47 96.46 C711.23 96.45 674.99 96.46 638.75 96.48 C606.55 96.5 574.35 96.5 542.15 96.48 C505.98 96.46 469.8 96.45 433.63 96.46 C429.77 96.46 425.92 96.46 422.06 96.46 C421.11 96.47 420.16 96.47 419.18 96.47 C404.84 96.47 390.51 96.46 376.17 96.45 C359.86 96.44 343.56 96.45 327.26 96.47 C318.13 96.48 309.01 96.48 299.88 96.47 C293.78 96.46 287.69 96.46 281.6 96.48 C278.12 96.49 274.65 96.49 271.18 96.48 C267.43 96.47 263.69 96.48 259.95 96.5 C259.41 96.49 259.41 96.49 256.69 96.47 C247.07 96.56 238.77 99.12 231.76 105.94 C225.25 113.57 224.65 121.21 224.37 130.91 C224.33 131.97 224.29 133.04 224.25 134.14 C224.16 136.76 224.08 139.38 224 142 C209.32 142.07 194.63 142.12 179.95 142.16 C173.13 142.17 166.31 142.19 159.49 142.23 C152.9 142.26 146.3 142.28 139.71 142.28 C137.21 142.29 134.7 142.3 132.2 142.32 C92.31 142.57 61.52 132.03 32.7 103.74 C22.13 92.67 15.6 79.08 10 65 C9.61 64.05 9.22 63.11 8.82 62.13 C1.69 43.07 -0.24 20.25 0 0 Z " fill="#AFB4BA" transform="translate(432,1451)"/>
<path d="M0 0 C1.7 -0 3.41 -0.01 5.11 -0.01 C9.78 -0.02 14.44 -0.02 19.11 -0 C24.19 0 29.27 -0 34.35 -0.01 C43.25 -0.02 52.15 -0.02 61.05 -0.01 C74.29 0 87.52 0 100.76 -0.01 C123.03 -0.02 145.29 -0.02 167.56 -0 C189.61 0.01 211.66 0.01 233.72 0.01 C235.1 0.01 236.49 0.01 237.87 0.01 C243.44 0.01 249.01 0.01 254.58 0.01 C270.14 0.01 285.7 0.01 301.26 0.01 C301.97 0.01 302.68 0.01 303.41 0.01 C325.99 0.01 348.56 0.02 371.14 0.02 C371.87 0.02 372.6 0.03 373.36 0.03 C385.25 0.03 397.14 0.03 409.02 0.04 C456.19 0.06 503.35 0.06 550.51 0.06 C553.5 0.06 556.48 0.06 559.46 0.06 C560.2 0.06 560.93 0.06 561.69 0.06 C569.85 0.06 578.02 0.06 586.18 0.06 C586.91 0.05 587.64 0.05 588.4 0.05 C627.91 0.05 667.42 0.06 706.94 0.06 C708.33 0.06 709.72 0.07 711.12 0.07 C711.8 0.07 712.49 0.07 713.2 0.07 C714.59 0.07 715.98 0.07 717.37 0.07 C720.83 0.07 724.29 0.07 727.75 0.07 C742.92 0.07 758.09 0.07 773.26 0.07 C773.95 0.07 774.63 0.07 775.33 0.07 C778.78 0.07 782.22 0.07 785.66 0.07 C810.53 0.07 835.4 0.07 860.27 0.09 C873.43 0.1 886.59 0.1 899.75 0.09 C908.53 0.09 917.31 0.1 926.09 0.11 C931.1 0.11 936.11 0.11 941.11 0.11 C945.67 0.1 950.22 0.11 954.78 0.12 C956.42 0.12 958.05 0.12 959.69 0.11 C988.43 0.04 1016.7 12.08 1037.2 32.31 C1048.99 44.41 1060.6 61.45 1063.83 78.37 C1063.41 80.7 1063.41 80.7 1062.83 82.37 C1062.08 81.47 1061.33 80.57 1060.56 79.64 C1059.57 78.44 1058.57 77.25 1057.58 76.06 C1057.08 75.47 1056.59 74.87 1056.09 74.26 C1053.52 71.19 1051.06 68.76 1047.83 66.37 C1047.83 65.71 1047.83 65.05 1047.83 64.37 C1047.29 64.13 1046.75 63.89 1046.2 63.64 C1043.22 62.05 1040.57 60.14 1037.83 58.19 C1017.91 44.27 996 35.25 971.41 35.25 C970.7 35.25 970 35.25 969.27 35.24 C966.91 35.24 964.56 35.24 962.2 35.25 C960.48 35.24 958.76 35.24 957.05 35.24 C952.32 35.24 947.58 35.24 942.85 35.24 C937.71 35.24 932.57 35.24 927.42 35.23 C918.41 35.23 909.39 35.23 900.37 35.23 C886.96 35.23 873.55 35.23 860.14 35.22 C834.81 35.21 809.47 35.21 784.13 35.21 C781.33 35.21 778.54 35.21 775.74 35.21 C775.4 35.21 775.4 35.21 773.64 35.21 C758.27 35.21 742.91 35.2 727.54 35.2 C721.21 35.2 714.89 35.2 708.56 35.2 C707.86 35.2 707.16 35.2 706.44 35.2 C666.38 35.19 626.32 35.19 586.26 35.19 C584.76 35.19 583.26 35.19 581.76 35.19 C574.99 35.19 568.22 35.19 561.45 35.19 C558.44 35.19 555.42 35.19 552.4 35.19 C550.89 35.19 549.38 35.19 547.87 35.19 C500.08 35.19 452.3 35.18 404.52 35.17 C392.48 35.17 380.43 35.16 368.39 35.16 C367.65 35.16 366.91 35.16 366.15 35.16 C343.3 35.15 320.45 35.15 297.61 35.15 C297.25 35.15 297.25 35.15 295.44 35.15 C279.69 35.15 263.95 35.15 248.21 35.15 C242.58 35.15 236.95 35.15 231.31 35.15 C229.91 35.15 228.51 35.15 227.11 35.15 C204.77 35.15 182.44 35.14 160.1 35.13 C136.98 35.12 113.87 35.12 90.75 35.13 C77.42 35.13 64.08 35.13 50.75 35.12 C41.85 35.11 32.95 35.12 24.06 35.12 C18.98 35.13 13.91 35.13 8.83 35.12 C4.22 35.11 -0.4 35.11 -5.01 35.12 C-6.67 35.12 -8.34 35.12 -10 35.12 C-12.25 35.11 -14.5 35.12 -16.76 35.13 C-17.38 35.13 -17.38 35.13 -20.54 35.12 C-24.67 35.41 -28.19 36.29 -32.17 37.37 C-34.03 37.65 -35.88 37.9 -37.74 38.12 C-62.7 42.22 -84.17 58.59 -101.17 76.37 C-102.5 77.71 -103.84 79.05 -105.17 80.37 C-103.64 62.23 -91.39 45.1 -79.17 32.37 C-78.84 32.02 -78.84 32.02 -77.17 30.22 C-72.33 25.14 -67.07 21.16 -61.17 17.37 C-60.29 16.8 -59.41 16.22 -58.5 15.63 C-52.67 12.01 -46.67 9.16 -40.3 6.62 C-39.61 6.34 -38.91 6.06 -38.2 5.77 C-25.62 0.96 -13.31 -0.06 0 0 Z " fill="#ECF2F3" transform="translate(546.1743440628052,312.62526988983154)"/>
<path d="M0 0 C1.57 -0.01 3.14 -0.02 4.71 -0.04 C9.01 -0.07 13.31 -0.02 17.6 0.05 C22.25 0.1 26.89 0.08 31.53 0.07 C40.61 0.06 49.69 0.11 58.77 0.19 C69.34 0.28 79.91 0.3 90.49 0.31 C109.34 0.33 128.19 0.42 147.04 0.53 C165.35 0.65 183.66 0.73 201.96 0.78 C202.53 0.78 202.53 0.78 205.38 0.79 C209.92 0.8 214.46 0.81 219 0.82 C253.72 0.91 288.44 1.02 323.16 1.22 C326.81 1.24 330.46 1.26 334.11 1.28 C338.29 1.3 342.48 1.32 346.67 1.35 C348.19 1.36 349.71 1.37 351.24 1.37 C353.29 1.38 355.35 1.4 357.4 1.41 C358.55 1.42 359.69 1.42 360.87 1.43 C363.42 1.57 363.42 1.57 364.42 2.57 C364.54 4.3 364.59 6.03 364.61 7.76 C364.63 8.89 364.64 10.01 364.66 11.17 C364.68 12.42 364.69 13.67 364.7 14.95 C364.71 15.61 364.71 15.61 364.76 18.91 C364.92 31.05 365 43.19 365.07 55.34 C365.12 64.29 365.2 73.24 365.34 82.19 C365.43 88.5 365.47 94.82 365.49 101.13 C365.5 104.89 365.53 108.64 365.61 112.4 C366.08 136.34 361.52 159.56 345.11 178.19 C344.4 178.79 343.7 179.39 342.98 180.01 C342.63 180.32 342.63 180.32 340.86 181.88 C333.03 187.3 325.84 186.99 316.57 186.93 C315.04 186.93 313.51 186.93 311.98 186.94 C307.79 186.95 303.6 186.93 299.41 186.92 C294.88 186.91 290.36 186.91 285.84 186.91 C278.01 186.91 270.17 186.9 262.34 186.89 C251.01 186.86 239.69 186.86 228.36 186.85 C209.99 186.84 191.61 186.82 173.23 186.8 C155.38 186.77 137.53 186.75 119.69 186.73 C118.58 186.73 117.48 186.73 116.35 186.73 C110.83 186.73 105.31 186.72 99.79 186.72 C54 186.69 8.21 186.64 -37.58 186.57 C-37.25 186.24 -37.25 186.24 -35.58 184.57 C-36.02 183.8 -36.45 183.02 -36.9 182.23 C-40.21 176.02 -42.4 171.63 -41.58 164.57 C-41.23 164.89 -41.23 164.89 -39.46 166.54 C-36.13 168.89 -34.59 169.07 -30.56 169.08 C-29.35 169.09 -28.13 169.1 -26.88 169.11 C-25.53 169.1 -24.18 169.09 -22.84 169.08 C-21.41 169.09 -19.97 169.1 -18.54 169.11 C-14.6 169.12 -10.67 169.12 -6.73 169.11 C-2.48 169.1 1.76 169.12 6.01 169.13 C14.33 169.15 22.65 169.15 30.97 169.14 C37.73 169.14 44.5 169.14 51.26 169.14 C52.22 169.15 53.18 169.15 54.18 169.15 C56.13 169.15 58.09 169.15 60.04 169.15 C78.38 169.17 96.72 169.16 115.06 169.14 C131.84 169.13 148.61 169.14 165.38 169.17 C182.61 169.2 199.83 169.21 217.05 169.2 C219 169.2 220.95 169.2 222.9 169.2 C223.38 169.2 223.38 169.2 225.81 169.2 C232.56 169.2 239.31 169.21 246.06 169.22 C254.3 169.24 262.53 169.24 270.77 169.22 C274.97 169.2 279.16 169.2 283.36 169.22 C287.21 169.24 291.06 169.23 294.91 169.21 C296.3 169.2 297.69 169.2 299.08 169.22 C307.58 169.29 314.31 168.53 321.42 163.57 C327.05 157.35 326.02 149.25 325.98 141.29 C325.99 139.8 325.99 138.3 326 136.81 C326.01 133.68 326.01 130.55 325.99 127.43 C325.98 123.44 326 119.45 326.03 115.46 C326.06 112.38 326.05 109.29 326.05 106.2 C326.05 104.73 326.05 103.27 326.07 101.8 C326.2 86.74 326.2 86.74 320.42 80.57 C317.5 78.27 315.27 77.53 311.67 76.51 C311.13 76.35 311.13 76.35 308.42 75.57 C308.09 74.91 307.76 74.25 307.42 73.57 C297.98 69.46 286.55 70.34 276.47 70.11 C275.01 70.07 273.54 70.03 272.08 69.99 C268.96 69.91 265.84 69.83 262.72 69.75 C254.46 69.55 246.19 69.33 237.93 69.11 C237.1 69.08 236.27 69.06 235.41 69.04 C192.53 67.89 149.67 66.22 106.83 64.03 C105.97 63.99 105.1 63.95 104.21 63.9 C97.23 63.55 97.23 63.55 93.95 63.38 C82.3 62.78 70.66 62.32 59 61.96 C49.33 61.65 39.69 61.07 30.04 60.43 C22.2 59.92 14.38 59.5 6.53 59.29 C6.17 59.28 6.17 59.28 4.33 59.23 C0.85 59.14 -2.62 59.06 -6.09 59 C-22.53 58.63 -22.53 58.63 -28.65 54.51 C-31.33 50.45 -31.47 47.32 -30.58 42.57 C-28.82 38.96 -26.55 35.84 -24.15 32.63 C-22.94 30.96 -21.73 29.28 -20.53 27.61 C-19.99 26.88 -19.45 26.15 -18.89 25.4 C-17.58 23.57 -17.58 23.57 -16.58 21.57 C-18.56 21.24 -18.56 21.24 -28.58 19.57 C-27.59 17.92 -26.6 16.27 -25.58 14.57 C-24.95 13.49 -24.31 12.41 -23.65 11.29 C-17.35 1.44 -11.5 -0.3 0 0 Z " fill="#C6CDD0" transform="translate(610.5841217041016,1603.4299621582031)"/>
<path d="M0 0 C48.11 -0.27 96.22 -0.49 144.34 -0.61 C150.02 -0.63 155.7 -0.64 161.38 -0.66 C162.51 -0.66 163.64 -0.67 164.8 -0.67 C183.11 -0.72 201.42 -0.82 219.73 -0.93 C238.52 -1.04 257.31 -1.1 276.1 -1.13 C287.69 -1.15 299.28 -1.2 310.87 -1.29 C318.82 -1.36 326.77 -1.38 334.72 -1.36 C339.31 -1.35 343.9 -1.37 348.48 -1.43 C352.69 -1.49 356.89 -1.49 361.09 -1.45 C362.61 -1.45 364.12 -1.46 365.64 -1.5 C371.89 -1.65 377.04 -1.65 382.04 2.56 C384.69 5.49 386.87 8.68 389 12 C389.75 13.13 390.51 14.26 391.27 15.39 C391.84 16.25 392.41 17.11 393 18 C390.86 18.33 390.86 18.33 380 20 C380.29 20.42 380.29 20.42 381.76 22.53 C382.96 24.26 384.16 25.99 385.36 27.74 C387.18 30.4 389.01 33.02 390.97 35.59 C393.61 39.13 395.47 41.72 395.19 46.25 C393.8 50.65 392.76 52.34 389 55 C382.82 57.03 376.49 57.33 370.04 57.53 C348.76 58.22 327.5 59.03 306.24 60.18 C269.93 62.13 233.59 63.48 197.25 64.83 C191.1 65.06 184.94 65.29 178.78 65.53 C168.43 65.92 158.07 66.31 147.71 66.7 C146.88 66.73 146.06 66.76 145.2 66.79 C112.82 68 112.82 68 97.37 68.33 C96.38 68.35 95.4 68.37 94.38 68.4 C90.1 68.49 85.83 68.56 81.55 68.62 C61 68.92 61 68.92 54 75 C52.51 75.5 51.01 75.96 49.5 76.38 C44.6 77.88 42.78 79.7 40 84 C38.32 88.23 37.74 91.8 37.71 96.34 C37.7 97.57 37.68 98.81 37.67 100.08 C37.67 101.42 37.67 102.75 37.66 104.09 C37.66 105.47 37.65 106.86 37.64 108.24 C37.63 111.14 37.63 114.03 37.63 116.93 C37.63 120.62 37.6 124.32 37.57 128.01 C37.55 130.87 37.54 133.73 37.54 136.59 C37.54 138.61 37.52 140.62 37.5 142.64 C37.53 149.9 38 154.86 42 161 C43.96 162.84 43.96 162.84 45.94 163.94 C46.59 164.32 47.23 164.7 47.9 165.09 C52.18 166.95 56.39 167.13 61.01 167.13 C61.62 167.13 61.62 167.13 64.69 167.14 C66.03 167.14 67.37 167.14 68.72 167.14 C70.15 167.14 71.58 167.15 73 167.15 C76.93 167.16 80.86 167.16 84.79 167.16 C89.02 167.16 93.26 167.17 97.5 167.18 C106.76 167.19 116.02 167.2 125.28 167.2 C131.05 167.2 136.83 167.21 142.61 167.21 C158.61 167.22 174.6 167.23 190.59 167.24 C191.62 167.24 192.64 167.24 193.69 167.24 C194.72 167.24 195.75 167.24 196.8 167.24 C198.88 167.24 200.96 167.24 203.04 167.24 C203.56 167.24 203.56 167.24 206.16 167.24 C222.89 167.24 239.62 167.26 256.34 167.29 C273.51 167.31 290.67 167.32 307.84 167.32 C317.48 167.32 327.12 167.33 336.76 167.35 C344.96 167.36 353.17 167.37 361.37 167.36 C365.56 167.36 369.75 167.36 373.94 167.37 C377.77 167.38 381.6 167.38 385.43 167.37 C386.82 167.37 388.21 167.37 389.6 167.38 C391.48 167.39 393.36 167.38 395.24 167.37 C395.76 167.37 395.76 167.37 398.41 167.37 C401.39 166.94 402.1 166.22 404 164 C404.66 164 405.32 164 406 164 C404.27 171.01 402.16 177.5 399 184 C399.99 184.33 400.98 184.66 402 185 C355.03 185.11 308.07 185.2 261.1 185.26 C255.56 185.26 250.01 185.27 244.47 185.27 C243.92 185.28 243.92 185.28 241.12 185.28 C223.25 185.3 205.38 185.34 187.5 185.39 C169.16 185.43 150.82 185.46 132.48 185.47 C121.17 185.48 109.85 185.5 98.53 185.54 C90.77 185.57 83.01 185.57 75.25 185.57 C70.77 185.56 66.3 185.57 61.82 185.6 C57.72 185.62 53.62 185.62 49.51 185.6 C48.03 185.6 46.55 185.61 45.07 185.62 C35.05 185.72 26.95 184.79 19.52 177.6 C14.65 170.37 10.73 162.9 7.06 155 C6.48 153.77 5.9 152.55 5.32 151.32 C-0.13 139.79 -0.13 139.79 -0.12 133.36 C-0.12 132.19 -0.12 131.01 -0.12 129.81 C-0.12 128.52 -0.12 127.23 -0.11 125.9 C-0.11 124.53 -0.11 123.16 -0.11 121.79 C-0.11 118.07 -0.11 114.35 -0.1 110.63 C-0.1 106.74 -0.09 102.85 -0.09 98.96 C-0.09 91.6 -0.08 84.24 -0.07 76.88 C-0.06 68.49 -0.06 60.11 -0.05 51.73 C-0.04 34.49 -0.02 17.24 0 0 Z " fill="#C7CED1" transform="translate(1074,1605)"/>
<path d="M0 0 C0.59 -0 0.59 -0 3.55 -0.02 C6.81 -0.03 10.06 -0.03 13.32 -0.02 C16.87 -0.01 20.41 -0.03 23.95 -0.04 C30.16 -0.05 36.37 -0.06 42.58 -0.05 C51.82 -0.05 61.05 -0.06 70.29 -0.08 C87.74 -0.11 105.19 -0.11 122.65 -0.12 C136.12 -0.12 149.6 -0.12 163.07 -0.13 C166.95 -0.14 170.82 -0.14 174.7 -0.14 C175.18 -0.14 175.18 -0.14 177.62 -0.14 C204.73 -0.16 231.84 -0.17 258.95 -0.17 C259.97 -0.17 260.99 -0.17 262.04 -0.17 C267.23 -0.17 272.41 -0.17 277.59 -0.17 C278.62 -0.17 279.65 -0.17 280.71 -0.17 C282.79 -0.17 284.87 -0.17 286.96 -0.17 C319.35 -0.17 351.74 -0.19 384.13 -0.23 C420.51 -0.28 456.88 -0.3 493.26 -0.3 C497.13 -0.3 501.01 -0.3 504.89 -0.3 C505.84 -0.3 506.79 -0.3 507.78 -0.3 C523.16 -0.3 538.54 -0.32 553.91 -0.34 C569.36 -0.37 584.81 -0.37 600.26 -0.35 C609.44 -0.34 618.63 -0.35 627.81 -0.38 C633.94 -0.4 640.07 -0.39 646.2 -0.37 C649.7 -0.36 653.19 -0.36 656.69 -0.38 C660.45 -0.4 664.21 -0.39 667.97 -0.36 C669.06 -0.38 670.15 -0.39 671.27 -0.41 C677.18 -0.32 680.79 0.37 685.2 4.42 C691.92 13.77 689.61 19.9 689.61 32.39 C454.98 32.39 220.35 32.39 -21.39 32.39 C-21.39 11.39 -21.39 11.39 -16.39 3.39 C-11.85 -0.88 -5.88 -0.03 0 0 Z " fill="#939CA4" transform="translate(690.3872890472412,1559.6140966415405)"/>
<path d="M0 0 C0.99 0.33 1.98 0.66 3 1 C3.08 1.95 3.17 2.9 3.25 3.88 C3.5 4.91 3.75 5.94 4 7 C5.88 8.06 5.88 8.06 8 9 C9 10.67 10 12.33 11 14 C12.76 16.25 14.63 18.4 16.5 20.56 C25 30.43 25 30.43 25 33 C25.71 33.24 26.42 33.48 27.14 33.73 C30.42 35.19 32.87 37.04 35.69 39.25 C54.12 53.33 76.99 61.12 100.29 61.13 C100.98 61.13 101.67 61.13 102.38 61.13 C104.69 61.14 107 61.13 109.31 61.13 C110.99 61.13 112.67 61.14 114.36 61.14 C118.99 61.14 123.63 61.14 128.26 61.14 C133.3 61.14 138.34 61.15 143.38 61.15 C153.38 61.16 163.38 61.16 173.38 61.16 C185.35 61.16 197.33 61.17 209.3 61.17 C237.56 61.19 265.82 61.2 294.08 61.2 C308.46 61.2 322.84 61.21 337.22 61.21 C383.37 61.22 429.51 61.23 475.65 61.24 C477.85 61.24 480.06 61.24 482.26 61.24 C486.69 61.24 491.11 61.24 495.53 61.24 C500.71 61.24 505.89 61.24 511.06 61.24 C512.55 61.24 514.03 61.24 515.51 61.24 C563.09 61.24 610.66 61.26 658.24 61.28 C692.43 61.3 726.61 61.31 760.8 61.32 C761.15 61.32 761.15 61.32 762.93 61.32 C778.38 61.32 793.83 61.32 809.27 61.32 C814.8 61.32 820.33 61.32 825.86 61.32 C827.23 61.32 828.61 61.32 829.98 61.32 C851.87 61.32 873.75 61.33 895.64 61.35 C918.31 61.36 940.98 61.37 963.65 61.36 C976.71 61.36 989.77 61.36 1002.84 61.38 C1011.57 61.39 1020.3 61.38 1029.04 61.37 C1034.01 61.37 1038.98 61.37 1043.95 61.38 C1079.58 61.47 1116.6 60.8 1145.23 36.31 C1148 34 1148 34 1150.13 32.99 C1152.8 31.58 1154.13 29.58 1155.94 27.19 C1158.78 23.52 1161.62 20.17 1165 17 C1166.03 22.78 1166.11 27.22 1162.94 32.3 C1160.63 35.17 1158.12 37.83 1155.54 40.44 C1154.1 41.9 1152.7 43.41 1151.31 44.91 C1138.06 58.92 1121.87 68.35 1103.62 74.31 C1103.28 74.43 1103.28 74.43 1101.52 75.01 C1087.49 79.3 1073.18 80.45 1058.61 80.38 C1056.93 80.38 1055.25 80.39 1053.57 80.39 C1049 80.4 1044.42 80.4 1039.85 80.39 C1034.85 80.38 1029.86 80.39 1024.87 80.4 C1016.13 80.41 1007.39 80.41 998.66 80.4 C985.66 80.39 972.67 80.39 959.68 80.4 C937.81 80.42 915.95 80.42 894.08 80.41 C893.42 80.41 892.75 80.41 892.07 80.41 C891.4 80.41 890.73 80.41 890.05 80.41 C869.74 80.4 849.43 80.4 829.12 80.4 C827.75 80.4 826.39 80.4 825.03 80.4 C819.56 80.4 814.09 80.4 808.62 80.41 C793.32 80.41 778.03 80.41 762.74 80.41 C762.04 80.41 761.34 80.41 760.62 80.41 C738.44 80.41 716.26 80.41 694.08 80.4 C693.72 80.4 693.72 80.4 691.9 80.4 C680.22 80.4 668.55 80.39 656.87 80.39 C610.56 80.38 564.25 80.38 517.93 80.39 C506.26 80.39 494.59 80.4 482.92 80.4 C482.2 80.4 481.48 80.4 480.74 80.4 C458.58 80.41 436.42 80.41 414.26 80.41 C413.57 80.41 412.87 80.41 412.16 80.41 C396.88 80.41 381.6 80.41 366.32 80.4 C360.86 80.4 355.39 80.4 349.93 80.4 C348.57 80.4 347.21 80.4 345.85 80.4 C325.54 80.4 305.24 80.4 284.93 80.41 C284.27 80.41 283.6 80.41 282.92 80.41 C282.26 80.41 281.59 80.41 280.91 80.41 C258.5 80.42 236.09 80.41 213.68 80.4 C200.76 80.39 187.85 80.39 174.93 80.4 C166.3 80.41 157.67 80.4 149.04 80.39 C144.13 80.38 139.22 80.38 134.3 80.39 C129.82 80.4 125.34 80.4 120.86 80.38 C119.26 80.38 117.66 80.38 116.06 80.39 C80.54 80.55 51.42 68.43 26 44 C25.36 43.43 24.71 42.86 24.05 42.28 C12.93 32.14 2.66 14.76 0 0 Z " fill="#B6BBC1" transform="translate(436,1427)"/>
<path d="M0 0 C125.07 0 250.14 0 379 0 C379 0.33 379 0.66 379 1 C377.35 1 375.7 1 374 1 C374.07 2.3 374.13 3.61 374.2 4.95 C374.19 10.12 372.79 14.03 370.81 18.75 C366.78 28.93 364.29 39.31 362 50 C359 50 359 50 357.15 48.57 C350.1 43.42 337.46 44.52 329.06 44.06 C326.27 43.9 323.48 43.73 320.69 43.56 C319.97 43.51 319.25 43.47 318.51 43.43 C311.57 42.99 304.65 42.41 297.73 41.81 C277.18 40.05 256.6 38.8 236.01 37.57 C223.8 36.84 211.6 36.1 199.42 35.03 C189.28 34.14 179.13 33.46 168.97 32.82 C168.17 32.77 167.37 32.71 166.54 32.66 C159.05 32.19 151.56 31.72 144.07 31.25 C125.41 30.09 106.79 28.83 88.18 27.02 C79 26.14 69.83 25.51 60.62 25 C59.78 24.95 58.93 24.9 58.06 24.86 C56.13 24.75 54.2 24.64 52.27 24.54 C41.29 23.93 30.34 23.15 19.38 22.38 C18.4 22.31 17.43 22.24 16.43 22.17 C10.95 21.78 5.48 21.39 0 21 C1.15 18.02 2.35 15.21 3.95 12.45 C4.3 11.83 4.65 11.22 5.02 10.58 C5.38 9.96 5.75 9.33 6.12 8.69 C6.5 8.04 6.87 7.4 7.25 6.73 C8.17 5.15 9.08 3.58 10 2 C6.7 1.67 3.4 1.34 0 1 C0 0.67 0 0.34 0 0 Z " fill="#8C959E" transform="translate(595,1605)"/>
<path d="M0 0 C125.07 0 250.14 0 379 0 C379 0.33 379 0.66 379 1 C375.7 1.33 372.4 1.66 369 2 C371.41 6.48 373.76 10.8 376.81 14.88 C379 18 379 18 379 21 C378.14 21.05 377.27 21.11 376.38 21.16 C365.36 21.85 354.33 22.55 343.31 23.25 C342.87 23.28 342.87 23.28 340.64 23.42 C318.45 24.84 296.29 26.35 274.15 28.44 C260.96 29.68 247.78 30.64 234.54 31.35 C226.56 31.78 218.59 32.32 210.62 33 C198.51 34.04 186.38 34.68 174.23 35.3 C173.86 35.32 173.86 35.32 171.96 35.42 C169.91 35.53 167.86 35.63 165.82 35.73 C162.54 35.96 159.31 36.33 156.05 36.76 C152.45 37.18 148.83 37.37 145.21 37.58 C143.42 37.69 141.63 37.79 139.83 37.9 C138.88 37.96 137.92 38.01 136.93 38.07 C116.43 39.29 95.92 40.62 75.43 42.01 C71.46 42.28 67.49 42.55 63.51 42.81 C59.73 43.05 55.94 43.31 52.15 43.57 C50.76 43.67 49.36 43.76 47.96 43.85 C38.09 44.47 27.85 45.21 19 50 C18.83 49.43 18.66 48.86 18.48 48.27 C17.96 46.53 17.44 44.79 16.92 43.05 C16.29 40.96 15.67 38.86 15.05 36.76 C13.34 31.03 11.47 25.61 8.95 20.18 C6.2 13.86 4.55 7.9 5 1 C3.35 1 1.7 1 0 1 C0 0.67 0 0.34 0 0 Z " fill="#8C949D" transform="translate(1074,1605)"/>
<path d="M0 0 C0.45 -0 0.45 -0 2.73 -0.02 C3.72 -0.02 4.72 -0.02 5.74 -0.02 C6.79 -0.02 7.84 -0.03 8.93 -0.03 C12.47 -0.04 16.02 -0.05 19.57 -0.06 C22.1 -0.06 24.64 -0.07 27.17 -0.08 C34.79 -0.1 42.41 -0.12 50.04 -0.13 C52.19 -0.14 54.34 -0.14 56.49 -0.14 C69.85 -0.17 83.2 -0.19 96.56 -0.2 C99.66 -0.21 102.75 -0.21 105.84 -0.21 C106.23 -0.21 106.23 -0.21 108.18 -0.22 C120.64 -0.23 133.1 -0.26 145.57 -0.3 C158.36 -0.35 171.15 -0.37 183.94 -0.37 C191.12 -0.38 198.31 -0.39 205.49 -0.42 C212.25 -0.45 219 -0.46 225.76 -0.45 C228.24 -0.45 230.72 -0.45 233.21 -0.47 C236.59 -0.5 239.97 -0.49 243.36 -0.47 C244.34 -0.48 245.33 -0.5 246.35 -0.51 C251.05 -0.46 253.05 -0.42 256.82 2.61 C257.46 3.45 258.09 4.28 258.74 5.14 C259.07 5.47 259.4 5.8 259.74 6.14 C260.03 10.95 260.05 15.76 260.09 20.57 C260.11 22.2 260.13 23.82 260.17 25.44 C260.23 27.77 260.25 30.11 260.26 32.44 C260.28 33.17 260.31 33.89 260.33 34.64 C260.32 36.69 260.32 36.69 259.74 40.14 C255.25 44.17 249.99 43.56 244.3 43.52 C243.77 43.53 243.77 43.53 241.08 43.54 C237.51 43.56 233.95 43.55 230.38 43.54 C227.83 43.55 225.27 43.55 222.72 43.56 C216.5 43.58 210.28 43.58 204.06 43.57 C199 43.57 193.95 43.57 188.89 43.58 C188.53 43.58 188.53 43.58 186.71 43.58 C185.25 43.58 183.79 43.58 182.33 43.58 C168.62 43.6 154.91 43.59 141.21 43.58 C128.67 43.57 116.13 43.58 103.58 43.61 C90.71 43.63 77.83 43.64 64.95 43.64 C57.72 43.63 50.5 43.63 43.27 43.65 C36.47 43.67 29.67 43.66 22.88 43.64 C20.38 43.64 17.88 43.64 15.38 43.65 C11.98 43.67 8.58 43.66 5.18 43.64 C4.68 43.64 4.68 43.64 2.17 43.67 C-2.12 43.62 -4.61 43.52 -8.37 41.32 C-11.01 38.28 -10.96 35.55 -10.89 31.7 C-10.89 30.99 -10.9 30.27 -10.9 29.54 C-10.9 28.03 -10.88 26.52 -10.86 25.01 C-10.82 22.71 -10.84 20.41 -10.86 18.11 C-10.85 16.64 -10.84 15.17 -10.83 13.7 C-10.83 13.02 -10.84 12.34 -10.84 11.63 C-10.73 6.89 -9.6 4.48 -6.26 1.14 C-3.94 -0.03 -2.59 0.01 0 0 Z " fill="#FAFCFB" transform="translate(899.2614107131958,983.8629856109619)"/>
<path d="M0 0 C1.98 0 3.96 0 6 0 C6.26 17.56 6.45 35.12 6.57 52.68 C6.63 60.84 6.7 69 6.83 77.15 C6.94 84.28 7.01 91.4 7.03 98.52 C7.05 102.28 7.08 106.04 7.16 109.8 C7.66 133.76 3.12 156.97 -13.31 175.62 C-14.01 176.22 -14.71 176.82 -15.44 177.44 C-15.79 177.75 -15.79 177.75 -17.56 179.31 C-25.38 184.73 -32.57 184.42 -41.85 184.36 C-43.38 184.36 -44.91 184.36 -46.43 184.37 C-50.63 184.38 -54.82 184.36 -59.01 184.35 C-63.53 184.34 -68.05 184.34 -72.58 184.34 C-80.41 184.34 -88.24 184.33 -96.08 184.32 C-107.4 184.29 -118.73 184.28 -130.05 184.28 C-148.43 184.27 -166.81 184.25 -185.18 184.23 C-203.03 184.2 -220.88 184.18 -238.73 184.16 C-239.83 184.16 -240.93 184.16 -242.07 184.16 C-247.59 184.16 -253.11 184.15 -258.63 184.15 C-304.42 184.12 -350.21 184.07 -396 184 C-395.67 183.67 -395.67 183.67 -394 182 C-394.43 181.23 -394.87 180.45 -395.31 179.66 C-398.63 173.45 -400.81 169.06 -400 162 C-399.65 162.32 -399.65 162.32 -397.88 163.97 C-394.54 166.32 -393.01 166.5 -388.98 166.51 C-387.76 166.52 -386.55 166.53 -385.29 166.54 C-383.95 166.53 -382.6 166.52 -381.25 166.51 C-379.82 166.52 -378.39 166.53 -376.96 166.54 C-373.02 166.55 -369.08 166.55 -365.15 166.54 C-360.9 166.53 -356.65 166.55 -352.41 166.56 C-344.09 166.58 -335.77 166.58 -327.45 166.57 C-320.68 166.57 -313.92 166.57 -307.16 166.57 C-306.19 166.58 -305.23 166.58 -304.24 166.58 C-302.28 166.58 -300.33 166.58 -298.38 166.58 C-280.03 166.6 -261.69 166.59 -243.35 166.57 C-226.58 166.56 -209.81 166.57 -193.03 166.6 C-175.81 166.63 -158.58 166.64 -141.36 166.63 C-139.41 166.63 -137.46 166.63 -135.51 166.63 C-135.03 166.63 -135.03 166.63 -132.61 166.63 C-125.86 166.63 -119.1 166.64 -112.35 166.65 C-104.12 166.67 -95.88 166.67 -87.65 166.65 C-83.45 166.63 -79.25 166.63 -75.05 166.65 C-71.2 166.67 -67.35 166.66 -63.51 166.64 C-62.12 166.63 -60.73 166.63 -59.34 166.65 C-50.84 166.72 -44.11 165.96 -37 161 C-31.36 154.78 -32.4 146.68 -32.43 138.72 C-32.43 137.23 -32.42 135.73 -32.41 134.24 C-32.4 131.11 -32.41 127.98 -32.42 124.86 C-32.44 120.87 -32.42 116.88 -32.38 112.89 C-32.36 109.81 -32.36 106.72 -32.37 103.63 C-32.37 102.16 -32.36 100.7 -32.35 99.23 C-32.22 84.17 -32.22 84.17 -38 78 C-41.5 75.22 -44.59 74.51 -49 74 C-48.67 72.68 -48.34 71.36 -48 70 C-47.03 69.99 -46.07 69.97 -45.07 69.96 C-35.89 69.62 -28.36 68.78 -21.2 62.39 C-14.52 55.15 -12.14 46.54 -10 37.12 C-8.24 29.43 -6.12 22.26 -3 15 C-1.07 10.02 -0.45 5.28 0 0 Z " fill="#ADB3B9" transform="translate(969,1606)"/>
<path d="M0 0 C1.65 0 3.3 0 5 0 C5.09 0.55 5.17 1.1 5.26 1.66 C7.01 11.5 10.27 20.98 14.12 30.19 C15.99 34.69 17.1 39.24 18.22 43.97 C20.41 52.5 22.68 59.71 29.88 65.19 C35.29 68.33 40.15 69.27 46.38 69.62 C47.62 69.7 48.87 69.77 50.15 69.85 C50.62 69.88 50.62 69.88 53 70 C53.33 71.32 53.66 72.64 54 74 C53.41 74.15 52.82 74.29 52.21 74.45 C46.24 76.14 43.39 77.76 40 83 C38.32 87.23 37.74 90.8 37.71 95.34 C37.7 96.57 37.68 97.81 37.67 99.08 C37.67 100.42 37.67 101.75 37.66 103.09 C37.66 104.47 37.65 105.86 37.64 107.24 C37.63 110.14 37.63 113.03 37.63 115.93 C37.63 119.62 37.6 123.32 37.57 127.01 C37.55 129.87 37.54 132.73 37.54 135.59 C37.54 137.61 37.52 139.62 37.5 141.64 C37.53 148.9 38 153.86 42 160 C43.96 161.84 43.96 161.84 45.94 162.94 C46.59 163.32 47.23 163.7 47.9 164.09 C52.18 165.95 56.39 166.13 61.01 166.13 C61.62 166.13 61.62 166.13 64.69 166.14 C66.03 166.14 67.37 166.14 68.72 166.14 C70.15 166.14 71.58 166.15 73 166.15 C76.93 166.16 80.86 166.16 84.79 166.16 C89.02 166.16 93.26 166.17 97.5 166.18 C106.76 166.19 116.02 166.2 125.28 166.2 C131.05 166.2 136.83 166.21 142.61 166.21 C158.61 166.22 174.6 166.23 190.59 166.24 C191.62 166.24 192.64 166.24 193.69 166.24 C194.72 166.24 195.75 166.24 196.8 166.24 C198.88 166.24 200.96 166.24 203.04 166.24 C203.56 166.24 203.56 166.24 206.16 166.24 C222.89 166.24 239.62 166.26 256.34 166.29 C273.51 166.31 290.67 166.32 307.84 166.32 C317.48 166.32 327.12 166.33 336.76 166.35 C344.96 166.36 353.17 166.37 361.37 166.36 C365.56 166.36 369.75 166.36 373.94 166.37 C377.77 166.38 381.6 166.38 385.43 166.37 C386.82 166.37 388.21 166.37 389.6 166.38 C391.48 166.39 393.36 166.38 395.24 166.37 C395.76 166.37 395.76 166.37 398.41 166.37 C401.39 165.94 402.1 165.22 404 163 C404.66 163 405.32 163 406 163 C404.27 170.01 402.16 176.5 399 183 C399.99 183.33 400.98 183.66 402 184 C355.03 184.11 308.07 184.2 261.1 184.26 C255.56 184.26 250.01 184.27 244.47 184.27 C243.92 184.28 243.92 184.28 241.12 184.28 C223.25 184.3 205.38 184.34 187.5 184.39 C169.16 184.43 150.82 184.46 132.48 184.47 C121.17 184.48 109.85 184.5 98.53 184.54 C90.77 184.57 83.01 184.57 75.25 184.57 C70.77 184.56 66.3 184.57 61.82 184.6 C57.72 184.62 53.62 184.62 49.51 184.6 C48.03 184.6 46.55 184.61 45.07 184.62 C35.05 184.72 26.95 183.79 19.52 176.6 C14.65 169.37 10.73 161.9 7.06 154 C6.48 152.77 5.9 151.55 5.32 150.32 C-0.13 138.79 -0.13 138.79 -0.12 132.4 C-0.12 131.82 -0.12 131.82 -0.12 128.87 C-0.12 127.59 -0.12 126.31 -0.11 124.99 C-0.11 123.63 -0.11 122.27 -0.11 120.91 C-0.11 117.22 -0.11 113.52 -0.1 109.83 C-0.1 105.97 -0.09 102.11 -0.09 98.25 C-0.09 90.94 -0.08 83.63 -0.07 76.32 C-0.06 68 -0.06 59.68 -0.05 51.36 C-0.04 34.24 -0.02 17.12 0 0 Z " fill="#ADB3B9" transform="translate(1074,1606)"/>
<path d="M0 0 C24.42 0 48.84 0 74 0 C74 45.54 74 91.08 74 138 C73.67 137.34 73.34 136.68 73 136 C72.1 136.01 71.2 136.03 70.27 136.04 C61.81 136.18 53.35 136.32 44.89 136.44 C40.54 136.51 36.19 136.58 31.84 136.65 C27.64 136.72 23.45 136.78 19.25 136.84 C17.65 136.87 16.04 136.89 14.44 136.92 C12.2 136.96 9.96 136.99 7.72 137.02 C7.08 137.03 7.08 137.03 3.85 137.08 C1 137 1 137 0 136 C-0.1 134.24 -0.12 132.48 -0.12 130.72 C-0.12 129.57 -0.12 128.43 -0.12 127.24 C-0.12 125.98 -0.12 124.71 -0.11 123.4 C-0.11 122.06 -0.11 120.72 -0.11 119.38 C-0.11 115.73 -0.11 112.08 -0.1 108.44 C-0.1 104.63 -0.09 100.82 -0.09 97.01 C-0.09 89.79 -0.08 82.57 -0.07 75.36 C-0.06 65.61 -0.05 55.86 -0.05 46.11 C-0.04 30.74 -0.02 15.37 0 0 Z " fill="#D6D0C4" transform="translate(987,1606)"/>
<path d="M0 0 C0.53 0.01 0.53 0.01 3.19 0.03 C17.31 0.43 28.34 5.67 38.34 15.81 C49.58 28.95 53.3 43.08 52.39 60.08 C50.94 73.66 42.93 85.63 32.88 94.44 C19.96 104.47 5.89 105.71 -9.88 104.56 C-23.91 102.03 -35.05 93.09 -43.5 82 C-52.25 68.83 -54.17 54.35 -51.18 38.97 C-46.95 25.12 -38.22 13.89 -26.07 6.17 C-17.38 1.81 -9.74 -0.14 0 0 Z " fill="#FBFCFA" transform="translate(1224.875,772.4375)"/>
<path d="M0 0 C2.57 1.94 4.9 3.97 7.22 6.2 C7.58 6.55 7.58 6.55 9.4 8.3 C20.35 19.7 23.67 32.79 23.65 48.12 C23.39 60.49 19.46 69.92 11.22 79.2 C10.48 80.23 9.73 81.27 8.97 82.33 C2.13 89.47 -6.48 93.28 -15.78 96.2 C-16.77 96.53 -17.76 96.86 -18.78 97.2 C-35.79 98.22 -50.23 96.12 -63.63 84.79 C-72.22 76.75 -79.12 66.61 -79.97 54.53 C-80.05 51.44 -80.05 48.36 -80.03 45.27 C-80.04 44.22 -80.05 43.17 -80.05 42.1 C-80.02 28.27 -75.53 17.39 -65.96 7.27 C-48.55 -9.18 -20.61 -13.32 0 0 Z " fill="#FBFDFA" transform="translate(851.78125,779.796875)"/>
<path d="M0 0 C2.49 3.25 4.77 6.61 7.06 10 C14.37 20.64 22.31 31.56 33.66 38.14 C40.24 42.23 44.84 45.99 46.83 53.73 C47.97 59.51 48.7 65.34 49.44 71.18 C50.32 77.18 51.65 83.05 53.04 88.94 C53.48 90.81 53.91 92.69 54.33 94.56 C56.97 105.93 60.56 116.24 67 126 C67 126.66 67 127.32 67 128 C67.66 128.33 68.32 128.66 69 129 C64.43 128.45 61.14 126.49 57.38 124 C56.76 123.6 56.15 123.2 55.52 122.79 C32.72 107.62 18.16 87.57 9 62 C8.88 61.66 8.88 61.66 8.24 59.94 C6.19 54.12 4.96 48.32 3.94 42.25 C3.77 41.26 3.6 40.27 3.42 39.24 C1.28 26.24 -0.16 13.19 0 0 Z " fill="#CCD2D6" transform="translate(432,1451)"/>
<path d="M0 0 C0.61 0.49 1.22 0.97 1.85 1.48 C6.39 3.67 10.47 3.41 15.45 3.37 C15.98 3.37 15.98 3.37 18.68 3.38 C22.25 3.38 25.82 3.37 29.39 3.36 C31.94 3.36 34.5 3.36 37.06 3.36 C43.29 3.37 49.52 3.36 55.74 3.34 C62.99 3.32 70.24 3.32 77.5 3.32 C90.43 3.32 103.36 3.31 116.3 3.28 C128.85 3.26 141.41 3.24 153.96 3.24 C154.74 3.24 155.51 3.24 156.31 3.24 C157.87 3.24 159.43 3.24 160.98 3.24 C161.37 3.24 161.37 3.24 163.31 3.24 C164.08 3.24 164.85 3.24 165.64 3.24 C177.6 3.23 189.56 3.22 201.51 3.21 C205.85 3.21 210.19 3.2 214.53 3.2 C222.05 3.19 229.57 3.18 237.09 3.17 C239.59 3.16 242.09 3.16 244.59 3.16 C248 3.16 251.4 3.15 254.8 3.14 C255.3 3.14 255.3 3.14 257.83 3.14 C258.74 3.14 259.65 3.14 260.58 3.13 C261.37 3.13 262.16 3.13 262.97 3.13 C265 3 265 3 268 2 C267.62 3.94 267.62 3.94 267 6 C264.66 7.17 263.31 7.12 260.71 7.12 C259.8 7.12 258.89 7.12 257.96 7.12 C256.96 7.12 255.96 7.11 254.92 7.11 C253.86 7.11 252.8 7.11 251.71 7.11 C248.14 7.11 244.56 7.1 240.99 7.09 C238.43 7.08 235.88 7.08 233.32 7.08 C225.64 7.07 217.96 7.05 210.28 7.03 C206.67 7.02 203.05 7.01 199.44 7 C187.42 6.97 175.41 6.94 163.4 6.9 C160.28 6.89 157.16 6.88 154.04 6.87 C153.65 6.87 153.65 6.87 151.69 6.86 C139.13 6.82 126.57 6.8 114.01 6.78 C101.12 6.76 88.23 6.73 75.34 6.69 C68.1 6.66 60.86 6.64 53.62 6.64 C46.81 6.64 40 6.61 33.19 6.58 C30.69 6.57 28.19 6.56 25.69 6.57 C22.28 6.57 18.87 6.55 15.46 6.53 C14.96 6.53 14.96 6.53 12.44 6.55 C8.08 6.49 5.64 6.39 1.85 4.09 C0 2 0 2 0 0 Z " fill="#646B6E" transform="translate(889,1023)"/>
<path d="M0 0 C10.56 0 21.12 0 32 0 C32 0.99 32 1.98 32 3 C34.97 3.33 37.94 3.66 41 4 C41.66 5.65 42.32 7.3 43 9 C42.34 9.33 41.68 9.66 41 10 C39.35 9.43 37.73 8.78 36.12 8.09 C29.96 5.76 24.54 5.4 18 5.5 C17.5 5.49 17.5 5.49 14.96 5.45 C5.47 5.5 -2.68 8.14 -10.69 13.25 C-11.52 13.77 -12.35 14.29 -13.2 14.83 C-13.79 15.21 -14.39 15.6 -15 16 C-15.66 15.34 -16.32 14.68 -17 14 C-14.62 11.37 -12.06 9.78 -9 8 C-7.97 7.28 -6.94 6.56 -5.88 5.81 C-3 4 -3 4 0 4 C0 2.68 0 1.36 0 0 Z " fill="#303F49" transform="translate(1207,768)"/>
<path d="M0 0 C4.35 -1.13 7.67 -1.3 12 0 C17.19 4.38 21.38 10.28 25 16 C25 16.33 25 16.66 25 17 C20.38 17.66 15.76 18.32 11 19 C9.54 16.77 8.08 14.54 6.62 12.31 C6.21 11.69 5.8 11.06 5.38 10.42 C3.18 7.04 1.33 3.83 0 0 Z " fill="#B9C1C6" transform="translate(1442,1606)"/>
<path d="M0 0 C3.13 0.33 3.13 0.33 5.44 0.75 C2.26 7.49 -1.31 13.62 -5.56 19.75 C-9.85 19.09 -14.14 18.43 -18.56 17.75 C-17.57 16.1 -16.58 14.45 -15.56 12.75 C-14.96 11.72 -14.35 10.7 -13.72 9.64 C-7.36 -0.06 -7.36 -0.06 0 0 Z " fill="#BAC4C7" transform="translate(600.5625,1605.25)"/>
<path d="M0 0 C-0.99 1.32 -1.98 2.64 -3 4 C-4.24 3.68 -5.49 3.36 -6.77 3.03 C-22.15 -0.37 -38.21 0.51 -51.77 8.67 C-53.91 10.05 -55.97 11.47 -58 13 C-58.99 12.34 -59.98 11.68 -61 11 C-50.78 3.98 -50.78 3.98 -46 2 C-45.34 2.33 -44.68 2.66 -44 3 C-44.33 2.01 -44.66 1.02 -45 0 C-29.4 -3.72 -15.6 -3.72 0 0 Z M0 -2 C0.33 -1.84 0.33 -1.84 2 -1 C1.67 -0.84 1.67 -0.84 0 0 C0 -0.66 0 -1.32 0 -2 Z " fill="#515D66" transform="translate(847,772)"/>
<path d="M0 0 C0 3 0 3 -2.44 5.62 C-3.28 6.41 -4.13 7.19 -5 8 C-5.33 8.33 -5.66 8.66 -6 9 C-15.73 10.66 -25.86 10.11 -35.69 10.06 C-37.37 10.06 -39.06 10.05 -40.74 10.05 C-44.83 10.04 -48.91 10.02 -53 10 C-53 7.36 -53 4.72 -53 2 C-52.15 2.36 -51.3 2.72 -50.42 3.09 C-35.68 8.74 -19.67 9.52 -5 3 C-3.31 2.03 -1.64 1.04 0 0 Z " fill="#3D444B" transform="translate(1253,869)"/>
<path d="M0 0 C-0.12 1.81 -0.12 1.81 -1 4 C-7.43 8.14 -14.46 8.15 -21.9 8.1 C-22.62 8.1 -23.35 8.09 -24.09 8.09 C-26.37 8.09 -28.66 8.08 -30.94 8.06 C-32.5 8.06 -34.05 8.05 -35.61 8.05 C-39.41 8.04 -43.2 8.02 -47 8 C-48.06 6.19 -48.06 6.19 -49 4 C-48.67 3.01 -48.34 2.02 -48 1 C-47.28 1.29 -46.56 1.58 -45.82 1.88 C-32.1 6.8 -17.43 7.07 -4 1 C-2 0 -2 0 0 0 Z " fill="#43484F" transform="translate(849,871)"/>
<path d="M0 0 C0.95 3.17 1.07 5.91 0.96 9.22 C0.44 30.69 0.44 30.69 5 40 C5.15 40.34 5.15 40.34 5.93 42.04 C6.57 43.38 7.28 44.7 8 46 C6.35 45.34 4.7 44.68 3 44 C3 42.35 3 40.7 3 39 C2.01 39 1.02 39 0 39 C-0.66 38.34 -1.32 37.68 -2 37 C-2.33 37.16 -2.33 37.16 -4 38 C-4.1 31.85 -4.1 31.85 -4 30 C-3.67 29.67 -3.34 29.34 -3 29 C-2.87 27.45 -2.8 25.89 -2.75 24.34 C-2.72 23.38 -2.69 22.42 -2.65 21.43 C-2.59 19.42 -2.54 17.4 -2.48 15.39 C-2.29 9.91 -1.79 5.18 0 0 Z " fill="#5C686E" transform="translate(772,809)"/>
<path d="M0 0 C15.18 0 30.36 0 46 0 C46 1.32 46 2.64 46 4 C44.44 3.86 42.87 3.71 41.31 3.56 C40.44 3.48 39.57 3.4 38.68 3.32 C36 3 36 3 33.59 2.48 C22.29 0.39 11.04 2.56 0 5 C0 3.35 0 1.7 0 0 Z " fill="#2C3C49" transform="translate(801,768)"/>
<path d="M0 0 C0.33 0 0.66 0 1 0 C1 2.97 1 5.94 1 9 C1.66 9 2.32 9 3 9 C3.28 13.42 3.52 17.83 3.75 22.25 C3.79 22.88 3.79 22.88 4 26.05 C4.05 27.26 4.11 28.46 4.17 29.7 C4.23 30.81 4.3 31.92 4.36 33.07 C4 36 4 36 0 40 C0 26.8 0 13.6 0 0 Z " fill="#080C10" transform="translate(1503,1703)"/>
<path d="M0 0 C10.52 -0.4 19.76 0.56 30 3 C29.01 4.32 28.02 5.64 27 7 C26.15 6.8 25.3 6.59 24.43 6.38 C15.87 4.41 7.78 3.39 -1 3 C-0.67 2.01 -0.34 1.02 0 0 Z M30 1 C30.33 1.16 30.33 1.16 32 2 C31.67 2.16 31.67 2.16 30 3 C30 2.34 30 1.68 30 1 Z " fill="#3F4F5A" transform="translate(817,769)"/>
<path d="M0 0 C15.54 -0.47 15.54 -0.47 21 2 C22.56 4.62 22.56 4.62 23 7 C22.67 7.16 22.67 7.16 21 8 C19.48 7.43 17.98 6.79 16.5 6.12 C8.58 3.06 0.39 3.18 -8 3 C-8 2.67 -8 2.34 -8 2 C-5.36 1.67 -2.72 1.34 0 1 C0 0.67 0 0.34 0 0 Z " fill="#54616B" transform="translate(1227,770)"/>
<path d="M0 0 C0.59 0 0.59 0 3.55 0.03 C4.44 0.04 5.33 0.05 6.25 0.06 C6.25 0.39 6.25 0.72 6.25 1.06 C5.3 1.2 4.34 1.33 3.36 1.46 C2.74 1.55 2.74 1.55 -0.44 2 C-1.06 2.09 -1.06 2.09 -4.2 2.53 C-7.07 2.96 -9.91 3.46 -12.75 4.06 C-13.08 5.05 -13.41 6.04 -13.75 7.06 C-15.96 8.63 -15.96 8.63 -18.69 10.19 C-19.58 10.71 -20.48 11.22 -21.4 11.76 C-22.84 12.55 -24.28 13.33 -25.75 14.06 C-26.41 13.4 -27.07 12.74 -27.75 12.06 C-25.36 9.42 -22.85 7.82 -19.75 6.06 C-19.03 5.64 -18.31 5.23 -17.57 4.8 C-16.78 4.35 -16 3.9 -15.19 3.44 C-14.44 3.01 -13.7 2.59 -12.93 2.15 C-8.58 -0.02 -4.84 -0.05 0 0 Z " fill="#4F5A62" transform="translate(1217.75,769.9375)"/>
</svg>
